<svg width="384" height="240" viewBox="0 0 384 240" fill="none" xmlns="http://www.w3.org/2000/svg">
<rect width="384" height="240" fill="#D2232A"/>
<path d="M76.352 78.16C76.352 81.4453 75.0933 84.24 72.576 86.544C70.0587 88.8053 66.368 90.064 61.504 90.32V97.68H58.304V90.384C55.1893 90.2133 52.2453 89.616 49.472 88.592C46.7413 87.5253 44.5867 86.1813 43.008 84.56L44.864 80.912C46.3573 82.3627 48.2987 83.5787 50.688 84.56C53.12 85.5413 55.6587 86.1173 58.304 86.288V69.456C55.36 68.7307 52.9067 67.9627 50.944 67.152C48.9813 66.2987 47.3387 65.0827 46.016 63.504C44.736 61.8827 44.096 59.7493 44.096 57.104C44.096 53.8187 45.2907 51.0667 47.68 48.848C50.0693 46.5867 53.6107 45.264 58.304 44.88V37.52H61.504V44.816C63.936 44.9013 66.2827 45.3067 68.544 46.032C70.848 46.7147 72.832 47.632 74.496 48.784L72.896 52.56C71.1467 51.4507 69.2907 50.576 67.328 49.936C65.3653 49.296 63.424 48.9333 61.504 48.848V65.808C64.6613 66.576 67.2427 67.3653 69.248 68.176C71.2533 68.944 72.9387 70.1387 74.304 71.76C75.6693 73.3813 76.352 75.5147 76.352 78.16ZM48.768 56.976C48.768 59.1947 49.5787 60.88 51.2 62.032C52.864 63.184 55.232 64.1653 58.304 64.976V48.976C55.1467 49.232 52.7573 50.1067 51.136 51.6C49.5573 53.0507 48.768 54.8427 48.768 56.976ZM61.504 86.288C64.8747 86.032 67.4133 85.2 69.12 83.792C70.8267 82.384 71.68 80.592 71.68 78.416C71.68 76.112 70.8053 74.384 69.056 73.232C67.3067 72.08 64.7893 71.0987 61.504 70.288V86.288ZM96.079 81.552L106.383 71.824C112.655 66 113.871 62.032 113.871 57.68C113.871 49.552 107.215 44.432 97.231 44.432C89.167 44.432 82.895 47.696 79.439 52.752L86.991 57.616C89.167 54.608 92.431 53.136 96.271 53.136C101.007 53.136 103.439 55.184 103.439 58.704C103.439 60.88 102.735 63.184 98.767 66.96L81.487 83.28V90H115.343V81.552H96.079ZM134.981 62.032H131.333L132.037 53.52H150.725V45.2H123.397L121.093 70.416H132.549C140.677 70.416 142.981 72.72 142.981 76.24C142.981 79.888 139.781 82.064 134.597 82.064C129.925 82.064 125.253 80.592 121.861 78.032L117.765 85.968C122.117 89.04 128.645 90.768 134.853 90.768C147.653 90.768 153.477 83.856 153.477 75.92C153.477 67.984 148.229 62.032 134.981 62.032Z" fill="white"/>
<path d="M41.66 151H51.92V148.36H44.9V137H41.66V151ZM58.5522 151.16C61.9722 151.16 64.4522 148.86 64.4522 145.62C64.4522 142.38 61.9722 140.08 58.5522 140.08C55.1322 140.08 52.6322 142.38 52.6322 145.62C52.6322 148.86 55.1322 151.16 58.5522 151.16ZM58.5522 148.6C56.9922 148.6 55.7922 147.48 55.7922 145.62C55.7922 143.76 56.9922 142.64 58.5522 142.64C60.1122 142.64 61.2922 143.76 61.2922 145.62C61.2922 147.48 60.1122 148.6 58.5522 148.6ZM71.7377 151.16C73.9977 151.16 75.7777 150.16 76.5577 148.44L74.1377 147.12C73.5577 148.16 72.6977 148.6 71.7177 148.6C70.1377 148.6 68.8977 147.5 68.8977 145.62C68.8977 143.74 70.1377 142.64 71.7177 142.64C72.6977 142.64 73.5577 143.1 74.1377 144.12L76.5577 142.82C75.7777 141.06 73.9977 140.08 71.7377 140.08C68.2377 140.08 65.7377 142.38 65.7377 145.62C65.7377 148.86 68.2377 151.16 71.7377 151.16ZM82.6941 140.08C80.9741 140.08 79.2341 140.54 78.0541 141.38L79.1741 143.56C79.9541 142.94 81.1341 142.56 82.2741 142.56C83.9541 142.56 84.7541 143.34 84.7541 144.68H82.2741C78.9941 144.68 77.6541 146 77.6541 147.9C77.6541 149.76 79.1541 151.16 81.6741 151.16C83.2541 151.16 84.3741 150.64 84.9541 149.66V151H87.8741V144.86C87.8741 141.6 85.9741 140.08 82.6941 140.08ZM82.4541 149.06C81.3541 149.06 80.6941 148.54 80.6941 147.76C80.6941 147.04 81.1541 146.5 82.6141 146.5H84.7541V147.6C84.3941 148.58 83.4941 149.06 82.4541 149.06ZM90.6978 151H93.8178V136.16H90.6978V151ZM108.658 137H102.598V151H105.838V147.14H108.658C112.398 147.14 114.738 145.2 114.738 142.08C114.738 138.94 112.398 137 108.658 137ZM108.478 144.5H105.838V139.64H108.478C110.458 139.64 111.458 140.54 111.458 142.08C111.458 143.6 110.458 144.5 108.478 144.5ZM119.811 141.66V140.24H116.831V151H119.951V145.92C119.951 143.86 121.091 142.92 122.811 142.92C123.051 142.92 123.251 142.94 123.511 142.96V140.08C121.851 140.08 120.571 140.62 119.811 141.66ZM126.926 138.74C128.086 138.74 128.866 137.98 128.866 136.94C128.866 135.98 128.086 135.26 126.926 135.26C125.766 135.26 124.986 136.02 124.986 137C124.986 137.98 125.766 138.74 126.926 138.74ZM125.366 151H128.486V140.24H125.366V151ZM136.581 151.16C138.841 151.16 140.621 150.16 141.401 148.44L138.981 147.12C138.401 148.16 137.541 148.6 136.561 148.6C134.981 148.6 133.741 147.5 133.741 145.62C133.741 143.74 134.981 142.64 136.561 142.64C137.541 142.64 138.401 143.1 138.981 144.12L141.401 142.82C140.621 141.06 138.841 140.08 136.581 140.08C133.081 140.08 130.581 142.38 130.581 145.62C130.581 148.86 133.081 151.16 136.581 151.16ZM153.601 145.66C153.601 142.2 151.161 140.08 148.001 140.08C144.721 140.08 142.261 142.4 142.261 145.62C142.261 148.82 144.681 151.16 148.401 151.16C150.341 151.16 151.841 150.56 152.841 149.42L151.181 147.62C150.441 148.32 149.621 148.66 148.481 148.66C146.841 148.66 145.701 147.84 145.401 146.5H153.541C153.561 146.24 153.601 145.9 153.601 145.66ZM148.021 142.44C149.421 142.44 150.441 143.32 150.661 144.68H145.361C145.581 143.3 146.601 142.44 148.021 142.44Z" fill="white"/>
<rect x="36.5" y="164.5" width="311" height="51" rx="11.5" fill="white"/>
<path d="M59.92 197.12C58.1333 197.12 56.7267 196.607 55.7 195.58C54.6733 194.553 54.16 193.033 54.16 191.02V183H55.64V190.96C55.64 192.613 56.0133 193.833 56.76 194.62C57.5067 195.407 58.56 195.8 59.92 195.8C61.2933 195.8 62.3533 195.407 63.1 194.62C63.8467 193.833 64.22 192.613 64.22 190.96V183H65.66V191.02C65.66 193.033 65.1467 194.553 64.12 195.58C63.1067 196.607 61.7067 197.12 59.92 197.12ZM76.2598 197.12C75.1932 197.12 74.2065 196.947 73.2998 196.6C72.4065 196.24 71.6265 195.74 70.9598 195.1C70.3065 194.46 69.7932 193.707 69.4198 192.84C69.0598 191.973 68.8798 191.027 68.8798 190C68.8798 188.973 69.0598 188.027 69.4198 187.16C69.7932 186.293 70.3132 185.54 70.9798 184.9C71.6465 184.26 72.4265 183.767 73.3198 183.42C74.2265 183.06 75.2132 182.88 76.2798 182.88C77.3465 182.88 78.3198 183.047 79.1998 183.38C80.0932 183.713 80.8532 184.22 81.4798 184.9L80.5598 185.84C79.9732 185.253 79.3265 184.833 78.6198 184.58C77.9132 184.327 77.1532 184.2 76.3398 184.2C75.4732 184.2 74.6732 184.347 73.9398 184.64C73.2198 184.92 72.5865 185.327 72.0398 185.86C71.5065 186.38 71.0865 186.993 70.7798 187.7C70.4865 188.393 70.3398 189.16 70.3398 190C70.3398 190.827 70.4865 191.593 70.7798 192.3C71.0865 193.007 71.5065 193.627 72.0398 194.16C72.5865 194.68 73.2198 195.087 73.9398 195.38C74.6732 195.66 75.4665 195.8 76.3198 195.8C77.1198 195.8 77.8732 195.68 78.5798 195.44C79.2998 195.2 79.9598 194.793 80.5598 194.22L81.3998 195.34C80.7332 195.927 79.9532 196.373 79.0598 196.68C78.1665 196.973 77.2332 197.12 76.2598 197.12ZM79.9798 195.16V190H81.3998V195.34L79.9798 195.16ZM83.6486 197L89.3886 189.24V190.38L83.9886 183H85.6886L90.2286 189.16L89.5686 189.18L94.1086 183H95.7086L90.3686 190.28V189.24L96.0886 197H94.3686L89.5286 190.42H90.1486L85.3486 197H83.6486Z" fill="#949494"/>
<path d="M107.068 182.88C108.308 182.88 109.355 183.16 110.208 183.72C111.061 184.267 111.708 185.06 112.148 186.1C112.588 187.14 112.808 188.4 112.808 189.88C112.808 191.453 112.535 192.78 111.988 193.86C111.455 194.94 110.708 195.753 109.748 196.3C108.788 196.847 107.675 197.12 106.408 197.12C105.781 197.12 105.181 197.06 104.608 196.94C104.048 196.82 103.541 196.627 103.088 196.36L103.668 195.2C104.028 195.44 104.441 195.613 104.908 195.72C105.388 195.813 105.881 195.86 106.388 195.86C107.895 195.86 109.095 195.38 109.988 194.42C110.895 193.46 111.348 192.027 111.348 190.12C111.348 189.813 111.328 189.447 111.288 189.02C111.261 188.593 111.188 188.167 111.068 187.74L111.568 188.12C111.435 188.813 111.148 189.407 110.708 189.9C110.281 190.38 109.748 190.747 109.108 191C108.481 191.253 107.781 191.38 107.008 191.38C106.088 191.38 105.268 191.207 104.548 190.86C103.841 190.513 103.288 190.027 102.888 189.4C102.488 188.773 102.288 188.033 102.288 187.18C102.288 186.3 102.495 185.54 102.908 184.9C103.321 184.26 103.888 183.767 104.608 183.42C105.341 183.06 106.161 182.88 107.068 182.88ZM107.128 184.1C106.461 184.1 105.868 184.227 105.348 184.48C104.841 184.72 104.441 185.067 104.148 185.52C103.855 185.973 103.708 186.513 103.708 187.14C103.708 188.06 104.021 188.793 104.648 189.34C105.288 189.887 106.148 190.16 107.228 190.16C107.948 190.16 108.575 190.027 109.108 189.76C109.655 189.493 110.075 189.127 110.368 188.66C110.675 188.193 110.828 187.673 110.828 187.1C110.828 186.58 110.688 186.093 110.408 185.64C110.128 185.187 109.715 184.82 109.168 184.54C108.621 184.247 107.941 184.1 107.128 184.1ZM117.335 197V183.6L117.975 184.28H114.035V183H118.775V197H117.335ZM122.202 199.92L123.082 196.22L123.242 197.08C122.935 197.08 122.675 196.98 122.462 196.78C122.262 196.58 122.162 196.32 122.162 196C122.162 195.68 122.262 195.42 122.462 195.22C122.675 195.02 122.929 194.92 123.222 194.92C123.529 194.92 123.775 195.027 123.962 195.24C124.162 195.453 124.262 195.707 124.262 196C124.262 196.107 124.255 196.213 124.242 196.32C124.229 196.427 124.202 196.547 124.162 196.68C124.122 196.813 124.069 196.973 124.002 197.16L123.162 199.92H122.202ZM131.876 197.12C130.756 197.12 129.789 196.96 128.976 196.64C128.176 196.32 127.556 195.86 127.116 195.26C126.689 194.647 126.476 193.927 126.476 193.1C126.476 192.3 126.682 191.62 127.096 191.06C127.522 190.487 128.136 190.047 128.936 189.74C129.749 189.433 130.729 189.28 131.876 189.28C133.009 189.28 133.982 189.433 134.796 189.74C135.609 190.047 136.229 190.487 136.656 191.06C137.096 191.62 137.316 192.3 137.316 193.1C137.316 193.927 137.096 194.647 136.656 195.26C136.216 195.86 135.589 196.32 134.776 196.64C133.962 196.96 132.996 197.12 131.876 197.12ZM131.876 195.9C133.116 195.9 134.082 195.647 134.776 195.14C135.482 194.633 135.836 193.947 135.836 193.08C135.836 192.213 135.482 191.533 134.776 191.04C134.082 190.533 133.116 190.28 131.876 190.28C130.636 190.28 129.669 190.533 128.976 191.04C128.282 191.533 127.936 192.213 127.936 193.08C127.936 193.947 128.282 194.633 128.976 195.14C129.669 195.647 130.636 195.9 131.876 195.9ZM131.876 190.1C130.836 190.1 129.949 189.96 129.216 189.68C128.496 189.4 127.942 189 127.556 188.48C127.169 187.947 126.976 187.313 126.976 186.58C126.976 185.807 127.176 185.147 127.576 184.6C127.989 184.04 128.562 183.613 129.296 183.32C130.029 183.027 130.889 182.88 131.876 182.88C132.862 182.88 133.722 183.027 134.456 183.32C135.202 183.613 135.782 184.04 136.196 184.6C136.609 185.147 136.816 185.807 136.816 186.58C136.816 187.313 136.622 187.947 136.236 188.48C135.849 189 135.282 189.4 134.536 189.68C133.802 189.96 132.916 190.1 131.876 190.1ZM131.876 189.14C132.969 189.14 133.822 188.913 134.436 188.46C135.049 188.007 135.356 187.4 135.356 186.64C135.356 185.84 135.036 185.22 134.396 184.78C133.769 184.327 132.929 184.1 131.876 184.1C130.822 184.1 129.982 184.327 129.356 184.78C128.729 185.22 128.416 185.833 128.416 186.62C128.416 187.393 128.716 188.007 129.316 188.46C129.929 188.913 130.782 189.14 131.876 189.14ZM141.77 197L147.81 183.64L148.25 184.28H139.59L140.33 183.58V186.9H138.91V183H149.19V184.02L143.33 197H141.77ZM153.547 197L159.587 183.64L160.027 184.28H151.367L152.107 183.58V186.9H150.687V183H160.967V184.02L155.107 197H153.547Z" fill="#3C3C45"/>
<g clip-path="url(#clip0_1241_2442)">
<path d="M302.006 187.582C302.6 186.52 303.15 185.433 303.794 184.396C304.775 182.803 305.819 181.248 306.844 179.686C307.419 178.803 308.606 178.76 309.169 179.63C310.569 181.791 311.938 183.964 313.313 186.143C313.506 186.452 313.644 186.792 313.838 187.1C314.45 188.069 313.613 189.057 312.831 189.205C312.575 189.255 312.306 189.249 312.038 189.255C311.663 189.261 311.294 189.255 310.913 189.255C310.906 189.323 310.894 189.366 310.894 189.409C310.894 191.699 310.856 193.984 310.919 196.274C310.969 198.021 311.881 199.305 313.438 200.139C313.794 200.33 313.888 200.423 313.819 200.633C313.731 200.917 313.488 200.867 313.275 200.867C312.181 200.867 311.088 200.886 309.994 200.861C307.256 200.793 305.175 198.7 305.156 196.002C305.144 193.854 305.156 191.706 305.156 189.557C305.156 189.465 305.156 189.372 305.156 189.249C304.906 189.249 304.663 189.249 304.425 189.249C304.169 189.249 303.913 189.249 303.65 189.249C302.856 189.242 302.275 188.81 302.038 188.057C302.031 188.039 302.013 188.02 302 188.002C302.006 187.853 302.006 187.718 302.006 187.582Z" fill="#949494"/>
<path d="M326.005 192.292C325.393 193.391 324.818 194.508 324.155 195.576C323.199 197.126 322.18 198.645 321.18 200.17C320.593 201.065 319.412 201.12 318.843 200.244C317.418 198.046 316.03 195.83 314.63 193.613C314.462 193.348 314.349 193.045 314.18 192.78C313.574 191.823 314.387 190.841 315.162 190.681C315.424 190.625 315.705 190.638 315.974 190.631C316.349 190.625 316.718 190.631 317.118 190.631C317.118 190.508 317.118 190.409 317.118 190.31C317.118 188.224 317.118 186.137 317.118 184.05C317.118 182.056 316.243 180.581 314.424 179.673C314.255 179.587 314.143 179.476 314.187 179.272C314.23 179.068 314.387 179.019 314.574 179.019C315.705 179.019 316.843 179 317.974 179.025C320.768 179.081 322.843 181.167 322.849 183.921C322.855 186.057 322.849 188.187 322.849 190.323C322.849 190.415 322.849 190.508 322.849 190.631C323.112 190.631 323.355 190.631 323.605 190.631C323.855 190.631 324.105 190.631 324.355 190.631C325.155 190.638 325.73 191.064 325.962 191.823C325.968 191.841 325.987 191.86 325.999 191.878C326.005 192.014 326.005 192.156 326.005 192.292Z" fill="#949494"/>
</g>
<rect x="36.5" y="164.5" width="311" height="51" rx="11.5" stroke="#E6E6E6"/>
<defs>
<clipPath id="clip0_1241_2442">
<rect width="24" height="24" fill="white" transform="translate(302 178)"/>
</clipPath>
</defs>
</svg>
