<svg width="650" height="179" viewBox="0 0 650 179" fill="none" xmlns="http://www.w3.org/2000/svg">
<g clip-path="url(#clip0_1190_1733)">
<path d="M108.728 40.0645L109.816 19.686C109.915 18.4989 109.024 17.6086 107.837 17.8064C106.65 17.9053 105.661 18.9935 105.562 20.0817L104.474 40.5591C103.386 41.2516 102.495 42.2408 102.1 43.4279L76.775 45.5053C75.5879 45.6043 74.5986 46.5935 74.4997 47.7806C74.4008 48.9677 75.2911 49.7591 76.4782 49.7591C76.4782 49.7591 76.4782 49.7591 76.5771 49.7591L102.594 47.4838C103.386 48.4731 104.573 48.9677 105.958 48.9677C108.53 48.8688 110.805 46.6924 111.003 44.1204C111.102 42.2408 110.212 40.757 108.728 40.0645Z" fill="#FF0000"/>
<path d="M114.366 56.4861L128.117 35.8108L129.205 34.228C130.886 31.656 132.172 29.5785 132.964 27.8968C133.854 26.2151 134.349 24.4345 134.547 22.6538C134.745 20.9721 134.547 19.785 133.953 18.9936C133.458 18.2022 132.568 17.9054 131.381 18.0044C129.699 18.2022 128.512 18.9936 127.721 20.4775C126.929 21.8624 126.435 23.8409 126.237 26.1162L126.039 28.4904L116.74 29.7764L116.938 27.2044C117.334 22.456 118.818 18.499 121.192 15.4323C123.665 12.3656 127.127 10.4861 131.777 9.99145C136.031 9.49683 139.196 10.1893 141.175 12.2667C143.153 14.3441 144.043 17.5097 143.648 21.7635C143.45 24.3355 142.757 26.8087 141.57 28.985C140.482 31.1613 138.701 33.9312 136.525 37.2947L135.734 38.4818L124.951 54.4087L139.592 52.5291L138.899 60.2452L113.772 63.4108L114.366 56.4861Z" fill="#002230"/>
<path d="M156.607 46.1979L141.669 48.0775L142.361 40.4603L158.09 7.32049L168.972 5.93555L166.103 37.6904L170.951 37.0968L170.258 44.5162L165.411 45.1097L164.224 57.0796L155.419 58.1678L156.607 46.1979ZM157.299 38.7786L159.278 17.0151L149.781 39.6689L157.299 38.7786Z" fill="#002230"/>
<path d="M109.618 68.1593L114.268 67.5657L113.377 77.2603L117.433 76.7657L118.323 67.0711L122.973 66.4775L120.797 90.2195L116.147 90.813L117.136 80.2281L113.08 80.7227L112.091 91.3077L107.343 92.0001L109.618 68.1593Z" fill="#002230"/>
<path d="M124.259 88.2408C123.368 87.0537 122.973 85.1742 123.269 82.6021L124.061 73.6989C124.259 71.1268 124.951 69.1484 126.138 67.7634C127.325 66.3785 129.106 65.4881 131.48 65.1914C133.854 64.8946 135.536 65.2903 136.525 66.4774C137.416 67.6645 137.811 69.5441 137.613 72.0172L136.822 80.9204C136.624 83.4924 135.932 85.4709 134.745 86.9548C133.557 88.4387 131.777 89.329 129.403 89.6258C126.831 89.8236 125.149 89.4279 124.259 88.2408ZM131.282 85.0752C131.579 84.4817 131.777 83.6903 131.876 82.701L132.865 71.4236C132.964 70.4344 132.865 69.7419 132.667 69.2473C132.469 68.7527 131.975 68.5548 131.183 68.6537C130.392 68.7527 129.798 69.0494 129.502 69.643C129.205 70.2365 129.007 71.0279 128.908 72.0172L127.919 83.2946C127.82 84.2838 127.919 85.0752 128.117 85.5699C128.314 86.0645 128.809 86.2623 129.699 86.1634C130.392 85.9656 130.887 85.6688 131.282 85.0752Z" fill="#002230"/>
<path d="M140.285 87.2516C139.394 86.757 138.801 85.9656 138.504 84.8774C138.207 83.7892 138.108 82.4043 138.306 80.6236L139.79 64.4L144.34 63.8064L142.758 80.7226C142.659 81.8107 142.659 82.7011 142.956 83.2946C143.153 83.8881 143.648 84.1849 144.538 84.086C145.33 83.9871 145.923 83.5914 146.22 82.8989C146.517 82.2064 146.715 81.3161 146.814 80.129L148.396 63.3118L153.046 62.7183L151.562 78.9419C151.364 80.7226 151.067 82.2064 150.573 83.3935C150.078 84.5806 149.287 85.5699 148.297 86.2623C147.308 86.9548 145.923 87.4494 144.242 87.6473C142.461 87.8451 141.175 87.7462 140.285 87.2516Z" fill="#002230"/>
<path d="M154.827 62.5205L160.762 61.7291C163.235 61.4324 165.016 61.6302 166.203 62.4216C167.39 63.213 167.786 64.7958 167.588 67.0711C167.489 68.6539 167.093 69.841 166.599 70.9291C166.104 71.9184 165.313 72.7098 164.225 73.4022L166.302 84.5807L161.554 85.1743L159.971 74.6883L158.289 74.8861L157.3 85.6689L152.65 86.2625L154.827 62.5205ZM159.971 71.9184C161.059 71.8195 161.85 71.4238 162.345 70.8302C162.84 70.2367 163.136 69.3463 163.235 68.1592C163.334 66.9721 163.235 66.1807 162.84 65.6861C162.543 65.1915 161.85 64.9937 160.762 65.0926L159.179 65.2904L158.586 72.1162L159.971 71.9184Z" fill="#002230"/>
<path d="M168.973 82.8001C167.984 81.7119 167.588 79.9312 167.786 77.4581L171.842 76.271C171.743 77.7549 171.842 78.8431 172.138 79.5355C172.435 80.228 172.93 80.5248 173.721 80.4259C174.315 80.3269 174.711 80.1291 175.007 79.7334C175.304 79.3377 175.403 78.8431 175.502 78.2495C175.601 77.3592 175.502 76.5678 175.106 75.9743C174.809 75.3807 174.216 74.6882 173.425 74.0947L171.248 72.2151C170.358 71.5226 169.764 70.7312 169.369 69.8409C168.973 68.9506 168.775 67.8624 168.973 66.5764C169.171 64.5979 169.863 63.114 171.05 61.9269C172.237 60.7398 173.82 60.0474 175.799 59.7506C177.876 59.4538 179.261 59.9484 179.954 61.0366C180.646 62.2237 180.943 63.7076 180.943 65.5872L176.887 66.6753C176.986 65.3893 176.887 64.499 176.689 63.9054C176.491 63.3119 176.095 63.114 175.403 63.213C174.908 63.3119 174.513 63.5097 174.117 64.0044C173.82 64.4 173.622 64.8947 173.523 65.4882C173.425 66.2796 173.523 66.8732 173.82 67.3678C174.117 67.8624 174.612 68.357 175.205 68.9506L177.283 70.7312C178.272 71.6216 179.063 72.5119 179.558 73.6001C180.052 74.5893 180.25 75.8753 180.151 77.3592C180.052 78.4474 179.756 79.5355 179.162 80.5248C178.569 81.514 177.876 82.3054 176.887 82.899C175.898 83.4925 174.908 83.8882 173.721 84.0861C171.446 84.2839 169.863 83.8882 168.973 82.8001Z" fill="#002230"/>
<path d="M104.375 82.0086C103.386 82.1076 102.495 82.2065 101.506 82.2065C80.8307 83.1957 65.6952 67.071 67.8715 46.4947C69.949 25.8194 88.5468 8.21079 109.222 7.32046C113.97 7.12261 118.323 7.81509 122.379 9.20003C123.863 7.91401 127.226 5.83659 133.261 5.93552C126.732 1.78068 118.818 -0.395666 110.013 3.29561e-05C85.2823 1.08821 63.1232 22.0602 60.5511 46.7914C57.9791 71.5226 76.0823 90.6151 100.715 89.428C101.704 89.428 102.693 89.3291 103.682 89.1312L104.375 82.0086Z" fill="#FF0000"/>
</g>
<path d="M39.0398 142V128H44.2798C45.4664 128 46.4864 128.193 47.3398 128.58C48.1931 128.953 48.8464 129.5 49.2998 130.22C49.7664 130.927 49.9998 131.787 49.9998 132.8C49.9998 133.787 49.7664 134.64 49.2998 135.36C48.8464 136.067 48.1931 136.613 47.3398 137C46.4864 137.373 45.4664 137.56 44.2798 137.56H39.8598L40.5198 136.88V142H39.0398ZM48.5998 142L44.9998 136.92H46.5998L50.2198 142H48.5998ZM40.5198 137L39.8598 136.3H44.2398C45.6398 136.3 46.6998 135.993 47.4198 135.38C48.1531 134.767 48.5198 133.907 48.5198 132.8C48.5198 131.68 48.1531 130.813 47.4198 130.2C46.6998 129.587 45.6398 129.28 44.2398 129.28H39.8598L40.5198 128.58V137ZM57.6529 142.1C56.5596 142.1 55.5996 141.873 54.7729 141.42C53.9462 140.953 53.2996 140.32 52.8329 139.52C52.3662 138.707 52.1329 137.78 52.1329 136.74C52.1329 135.7 52.3529 134.78 52.7929 133.98C53.2462 133.18 53.8596 132.553 54.6329 132.1C55.4196 131.633 56.2996 131.4 57.2729 131.4C58.2596 131.4 59.1329 131.627 59.8929 132.08C60.6662 132.52 61.2729 133.147 61.7129 133.96C62.1529 134.76 62.3729 135.687 62.3729 136.74C62.3729 136.807 62.3662 136.88 62.3529 136.96C62.3529 137.027 62.3529 137.1 62.3529 137.18H53.2129V136.12H61.5929L61.0329 136.54C61.0329 135.78 60.8662 135.107 60.5329 134.52C60.2129 133.92 59.7729 133.453 59.2129 133.12C58.6529 132.787 58.0062 132.62 57.2729 132.62C56.5529 132.62 55.9062 132.787 55.3329 133.12C54.7596 133.453 54.3129 133.92 53.9929 134.52C53.6729 135.12 53.5129 135.807 53.5129 136.58V136.8C53.5129 137.6 53.6862 138.307 54.0329 138.92C54.3929 139.52 54.8862 139.993 55.5129 140.34C56.1529 140.673 56.8796 140.84 57.6929 140.84C58.3329 140.84 58.9262 140.727 59.4729 140.5C60.0329 140.273 60.5129 139.927 60.9129 139.46L61.7129 140.38C61.2462 140.94 60.6596 141.367 59.9529 141.66C59.2596 141.953 58.4929 142.1 57.6529 142.1ZM70.6232 131.4C71.4765 131.4 72.2232 131.567 72.8632 131.9C73.5165 132.22 74.0232 132.713 74.3832 133.38C74.7565 134.047 74.9432 134.887 74.9432 135.9V142H73.5232V136.04C73.5232 134.933 73.2432 134.1 72.6832 133.54C72.1365 132.967 71.3632 132.68 70.3632 132.68C69.6165 132.68 68.9632 132.833 68.4032 133.14C67.8565 133.433 67.4299 133.867 67.1232 134.44C66.8299 135 66.6832 135.68 66.6832 136.48V142H65.2632V131.5H66.6232V134.38L66.4032 133.84C66.7365 133.08 67.2699 132.487 68.0032 132.06C68.7365 131.62 69.6099 131.4 70.6232 131.4ZM82.0988 142.1C81.1122 142.1 80.3522 141.833 79.8188 141.3C79.2855 140.767 79.0188 140.013 79.0188 139.04V129.18H80.4388V138.96C80.4388 139.573 80.5922 140.047 80.8988 140.38C81.2188 140.713 81.6722 140.88 82.2588 140.88C82.8855 140.88 83.4055 140.7 83.8188 140.34L84.3188 141.36C84.0388 141.613 83.6988 141.8 83.2988 141.92C82.9122 142.04 82.5122 142.1 82.0988 142.1ZM77.1388 132.68V131.5H83.6388V132.68H77.1388ZM93.4838 142V139.68L93.4238 139.3V135.42C93.4238 134.527 93.1705 133.84 92.6638 133.36C92.1705 132.88 91.4305 132.64 90.4438 132.64C89.7638 132.64 89.1172 132.753 88.5038 132.98C87.8905 133.207 87.3705 133.507 86.9438 133.88L86.3038 132.82C86.8372 132.367 87.4772 132.02 88.2238 131.78C88.9705 131.527 89.7572 131.4 90.5838 131.4C91.9438 131.4 92.9905 131.74 93.7238 132.42C94.4705 133.087 94.8438 134.107 94.8438 135.48V142H93.4838ZM89.8638 142.1C89.0772 142.1 88.3905 141.973 87.8038 141.72C87.2305 141.453 86.7905 141.093 86.4838 140.64C86.1772 140.173 86.0238 139.64 86.0238 139.04C86.0238 138.493 86.1505 138 86.4038 137.56C86.6705 137.107 87.0972 136.747 87.6838 136.48C88.2838 136.2 89.0838 136.06 90.0838 136.06H93.7038V137.12H90.1238C89.1105 137.12 88.4038 137.3 88.0038 137.66C87.6172 138.02 87.4238 138.467 87.4238 139C87.4238 139.6 87.6572 140.08 88.1238 140.44C88.5905 140.8 89.2438 140.98 90.0838 140.98C90.8838 140.98 91.5705 140.8 92.1438 140.44C92.7305 140.067 93.1572 139.533 93.4238 138.84L93.7438 139.82C93.4772 140.513 93.0105 141.067 92.3438 141.48C91.6905 141.893 90.8638 142.1 89.8638 142.1ZM98.7007 142V127.16H100.121V142H98.7007ZM106.892 142.1C106.025 142.1 105.205 141.98 104.432 141.74C103.658 141.487 103.052 141.173 102.612 140.8L103.252 139.68C103.678 140 104.225 140.28 104.892 140.52C105.558 140.747 106.258 140.86 106.992 140.86C107.992 140.86 108.712 140.707 109.152 140.4C109.592 140.08 109.812 139.66 109.812 139.14C109.812 138.753 109.685 138.453 109.432 138.24C109.192 138.013 108.872 137.847 108.472 137.74C108.072 137.62 107.625 137.52 107.132 137.44C106.638 137.36 106.145 137.267 105.652 137.16C105.172 137.053 104.732 136.9 104.332 136.7C103.932 136.487 103.605 136.2 103.352 135.84C103.112 135.48 102.992 135 102.992 134.4C102.992 133.827 103.152 133.313 103.472 132.86C103.792 132.407 104.258 132.053 104.872 131.8C105.498 131.533 106.258 131.4 107.152 131.4C107.832 131.4 108.512 131.493 109.192 131.68C109.872 131.853 110.432 132.087 110.872 132.38L110.252 133.52C109.785 133.2 109.285 132.973 108.752 132.84C108.218 132.693 107.685 132.62 107.152 132.62C106.205 132.62 105.505 132.787 105.052 133.12C104.612 133.44 104.392 133.853 104.392 134.36C104.392 134.76 104.512 135.073 104.752 135.3C105.005 135.527 105.332 135.707 105.732 135.84C106.145 135.96 106.592 136.06 107.072 136.14C107.565 136.22 108.052 136.32 108.532 136.44C109.025 136.547 109.472 136.7 109.872 136.9C110.285 137.087 110.612 137.36 110.852 137.72C111.105 138.067 111.232 138.527 111.232 139.1C111.232 139.713 111.058 140.247 110.712 140.7C110.378 141.14 109.885 141.487 109.232 141.74C108.592 141.98 107.812 142.1 106.892 142.1ZM118.292 137.2V135.96H123.532V137.2H118.292ZM130.623 142V139.9L136.023 134.8C136.45 134.413 136.763 134.067 136.963 133.76C137.163 133.453 137.296 133.173 137.363 132.92C137.443 132.667 137.483 132.433 137.483 132.22C137.483 131.66 137.29 131.233 136.903 130.94C136.53 130.633 135.976 130.48 135.243 130.48C134.656 130.48 134.11 130.593 133.603 130.82C133.11 131.047 132.69 131.4 132.343 131.88L129.983 130.36C130.516 129.56 131.263 128.927 132.223 128.46C133.183 127.993 134.29 127.76 135.543 127.76C136.583 127.76 137.49 127.933 138.263 128.28C139.05 128.613 139.656 129.087 140.083 129.7C140.523 130.313 140.743 131.047 140.743 131.9C140.743 132.353 140.683 132.807 140.563 133.26C140.456 133.7 140.23 134.167 139.883 134.66C139.55 135.153 139.056 135.707 138.403 136.32L133.923 140.54L133.303 139.36H141.203V142H130.623ZM148.54 142.24C147.393 142.24 146.366 141.96 145.46 141.4C144.553 140.827 143.84 140 143.32 138.92C142.8 137.84 142.54 136.533 142.54 135C142.54 133.467 142.8 132.16 143.32 131.08C143.84 130 144.553 129.18 145.46 128.62C146.366 128.047 147.393 127.76 148.54 127.76C149.7 127.76 150.726 128.047 151.62 128.62C152.526 129.18 153.24 130 153.76 131.08C154.28 132.16 154.54 133.467 154.54 135C154.54 136.533 154.28 137.84 153.76 138.92C153.24 140 152.526 140.827 151.62 141.4C150.726 141.96 149.7 142.24 148.54 142.24ZM148.54 139.5C149.086 139.5 149.56 139.347 149.96 139.04C150.373 138.733 150.693 138.247 150.92 137.58C151.16 136.913 151.28 136.053 151.28 135C151.28 133.947 151.16 133.087 150.92 132.42C150.693 131.753 150.373 131.267 149.96 130.96C149.56 130.653 149.086 130.5 148.54 130.5C148.006 130.5 147.533 130.653 147.12 130.96C146.72 131.267 146.4 131.753 146.16 132.42C145.933 133.087 145.82 133.947 145.82 135C145.82 136.053 145.933 136.913 146.16 137.58C146.4 138.247 146.72 138.733 147.12 139.04C147.533 139.347 148.006 139.5 148.54 139.5ZM158.134 142L167.694 128H170.074L160.514 142H158.134ZM159.354 135.56C158.674 135.56 158.074 135.407 157.554 135.1C157.034 134.78 156.621 134.333 156.314 133.76C156.021 133.173 155.874 132.487 155.874 131.7C155.874 130.913 156.021 130.233 156.314 129.66C156.621 129.087 157.034 128.64 157.554 128.32C158.074 128 158.674 127.84 159.354 127.84C160.034 127.84 160.634 128 161.154 128.32C161.674 128.64 162.081 129.087 162.374 129.66C162.667 130.233 162.814 130.913 162.814 131.7C162.814 132.487 162.667 133.173 162.374 133.76C162.081 134.333 161.674 134.78 161.154 135.1C160.634 135.407 160.034 135.56 159.354 135.56ZM159.354 133.92C159.794 133.92 160.147 133.74 160.414 133.38C160.681 133.007 160.814 132.447 160.814 131.7C160.814 130.953 160.681 130.4 160.414 130.04C160.147 129.667 159.794 129.48 159.354 129.48C158.927 129.48 158.574 129.667 158.294 130.04C158.027 130.4 157.894 130.953 157.894 131.7C157.894 132.433 158.027 132.987 158.294 133.36C158.574 133.733 158.927 133.92 159.354 133.92ZM168.854 142.16C168.187 142.16 167.587 142.007 167.054 141.7C166.534 141.38 166.127 140.933 165.834 140.36C165.541 139.773 165.394 139.087 165.394 138.3C165.394 137.513 165.541 136.833 165.834 136.26C166.127 135.687 166.534 135.24 167.054 134.92C167.587 134.6 168.187 134.44 168.854 134.44C169.547 134.44 170.154 134.6 170.674 134.92C171.194 135.24 171.601 135.687 171.894 136.26C172.187 136.833 172.334 137.513 172.334 138.3C172.334 139.087 172.187 139.773 171.894 140.36C171.601 140.933 171.194 141.38 170.674 141.7C170.154 142.007 169.547 142.16 168.854 142.16ZM168.854 140.52C169.294 140.52 169.647 140.34 169.914 139.98C170.181 139.607 170.314 139.047 170.314 138.3C170.314 137.567 170.181 137.013 169.914 136.64C169.647 136.267 169.294 136.08 168.854 136.08C168.427 136.08 168.074 136.267 167.794 136.64C167.527 137 167.394 137.553 167.394 138.3C167.394 139.047 167.527 139.607 167.794 139.98C168.074 140.34 168.427 140.52 168.854 140.52ZM184.367 142.1C183.354 142.1 182.441 141.873 181.627 141.42C180.827 140.953 180.194 140.32 179.727 139.52C179.261 138.707 179.027 137.78 179.027 136.74C179.027 135.687 179.261 134.76 179.727 133.96C180.194 133.16 180.827 132.533 181.627 132.08C182.427 131.627 183.341 131.4 184.367 131.4C185.407 131.4 186.327 131.627 187.127 132.08C187.941 132.533 188.574 133.16 189.027 133.96C189.494 134.76 189.727 135.687 189.727 136.74C189.727 137.78 189.494 138.707 189.027 139.52C188.574 140.32 187.941 140.953 187.127 141.42C186.314 141.873 185.394 142.1 184.367 142.1ZM184.367 140.84C185.127 140.84 185.801 140.673 186.387 140.34C186.974 139.993 187.434 139.513 187.767 138.9C188.114 138.273 188.287 137.553 188.287 136.74C188.287 135.913 188.114 135.193 187.767 134.58C187.434 133.967 186.974 133.493 186.387 133.16C185.801 132.813 185.134 132.64 184.387 132.64C183.641 132.64 182.974 132.813 182.387 133.16C181.801 133.493 181.334 133.967 180.987 134.58C180.641 135.193 180.467 135.913 180.467 136.74C180.467 137.553 180.641 138.273 180.987 138.9C181.334 139.513 181.801 139.993 182.387 140.34C182.974 140.673 183.634 140.84 184.367 140.84ZM192.866 142V130.18C192.866 129.247 193.14 128.493 193.686 127.92C194.233 127.347 195.02 127.06 196.046 127.06C196.446 127.06 196.833 127.113 197.206 127.22C197.58 127.327 197.893 127.493 198.146 127.72L197.666 128.78C197.466 128.607 197.233 128.48 196.966 128.4C196.7 128.307 196.413 128.26 196.106 128.26C195.506 128.26 195.046 128.427 194.726 128.76C194.406 129.093 194.246 129.587 194.246 130.24V131.84L194.286 132.5V142H192.866ZM190.986 132.68V131.5H197.486V132.68H190.986ZM199.683 142V130.18C199.683 129.247 199.956 128.493 200.503 127.92C201.05 127.347 201.836 127.06 202.863 127.06C203.263 127.06 203.65 127.113 204.023 127.22C204.396 127.327 204.71 127.493 204.963 127.72L204.483 128.78C204.283 128.607 204.05 128.48 203.783 128.4C203.516 128.307 203.23 128.26 202.923 128.26C202.323 128.26 201.863 128.427 201.543 128.76C201.223 129.093 201.063 129.587 201.063 130.24V131.84L201.103 132.5V142H199.683ZM197.803 132.68V131.5H204.303V132.68H197.803ZM10.6609 166V152H15.9009C17.0875 152 18.1075 152.193 18.9609 152.58C19.8142 152.953 20.4675 153.5 20.9209 154.22C21.3875 154.927 21.6209 155.787 21.6209 156.8C21.6209 157.787 21.3875 158.64 20.9209 159.36C20.4675 160.067 19.8142 160.613 18.9609 161C18.1075 161.373 17.0875 161.56 15.9009 161.56H11.4809L12.1409 160.88V166H10.6609ZM20.2209 166L16.6209 160.92H18.2209L21.8409 166H20.2209ZM12.1409 161L11.4809 160.3H15.8609C17.2609 160.3 18.3209 159.993 19.0409 159.38C19.7742 158.767 20.1409 157.907 20.1409 156.8C20.1409 155.68 19.7742 154.813 19.0409 154.2C18.3209 153.587 17.2609 153.28 15.8609 153.28H11.4809L12.1409 152.58V161ZM29.274 166.1C28.1807 166.1 27.2207 165.873 26.394 165.42C25.5673 164.953 24.9207 164.32 24.454 163.52C23.9873 162.707 23.754 161.78 23.754 160.74C23.754 159.7 23.974 158.78 24.414 157.98C24.8673 157.18 25.4807 156.553 26.254 156.1C27.0407 155.633 27.9207 155.4 28.894 155.4C29.8807 155.4 30.754 155.627 31.514 156.08C32.2873 156.52 32.894 157.147 33.334 157.96C33.774 158.76 33.994 159.687 33.994 160.74C33.994 160.807 33.9873 160.88 33.974 160.96C33.974 161.027 33.974 161.1 33.974 161.18H24.834V160.12H33.214L32.654 160.54C32.654 159.78 32.4873 159.107 32.154 158.52C31.834 157.92 31.394 157.453 30.834 157.12C30.274 156.787 29.6273 156.62 28.894 156.62C28.174 156.62 27.5273 156.787 26.954 157.12C26.3807 157.453 25.934 157.92 25.614 158.52C25.294 159.12 25.134 159.807 25.134 160.58V160.8C25.134 161.6 25.3073 162.307 25.654 162.92C26.014 163.52 26.5073 163.993 27.134 164.34C27.774 164.673 28.5007 164.84 29.314 164.84C29.954 164.84 30.5473 164.727 31.094 164.5C31.654 164.273 32.134 163.927 32.534 163.46L33.334 164.38C32.8673 164.94 32.2807 165.367 31.574 165.66C30.8807 165.953 30.114 166.1 29.274 166.1ZM41.3643 169.98C40.4043 169.98 39.4843 169.84 38.6043 169.56C37.7243 169.28 37.011 168.88 36.4643 168.36L37.1843 167.28C37.6776 167.72 38.2843 168.067 39.0043 168.32C39.7376 168.587 40.511 168.72 41.3243 168.72C42.6576 168.72 43.6376 168.407 44.2643 167.78C44.891 167.167 45.2043 166.207 45.2043 164.9V162.28L45.4043 160.48L45.2643 158.68V155.5H46.6243V164.72C46.6243 166.533 46.1776 167.86 45.2843 168.7C44.4043 169.553 43.0976 169.98 41.3643 169.98ZM41.1043 165.6C40.1043 165.6 39.2043 165.387 38.4043 164.96C37.6043 164.52 36.971 163.913 36.5043 163.14C36.051 162.367 35.8243 161.48 35.8243 160.48C35.8243 159.48 36.051 158.6 36.5043 157.84C36.971 157.067 37.6043 156.467 38.4043 156.04C39.2043 155.613 40.1043 155.4 41.1043 155.4C42.0376 155.4 42.8776 155.593 43.6243 155.98C44.371 156.367 44.9643 156.94 45.4043 157.7C45.8443 158.46 46.0643 159.387 46.0643 160.48C46.0643 161.573 45.8443 162.5 45.4043 163.26C44.9643 164.02 44.371 164.6 43.6243 165C42.8776 165.4 42.0376 165.6 41.1043 165.6ZM41.2443 164.34C42.0176 164.34 42.7043 164.18 43.3043 163.86C43.9043 163.527 44.3776 163.073 44.7243 162.5C45.071 161.913 45.2443 161.24 45.2443 160.48C45.2443 159.72 45.071 159.053 44.7243 158.48C44.3776 157.907 43.9043 157.46 43.3043 157.14C42.7043 156.807 42.0176 156.64 41.2443 156.64C40.4843 156.64 39.7976 156.807 39.1843 157.14C38.5843 157.46 38.111 157.907 37.7643 158.48C37.431 159.053 37.2643 159.72 37.2643 160.48C37.2643 161.24 37.431 161.913 37.7643 162.5C38.111 163.073 38.5843 163.527 39.1843 163.86C39.7976 164.18 40.4843 164.34 41.2443 164.34ZM50.5757 166V155.5H51.9957V166H50.5757ZM51.2957 153.18C51.0024 153.18 50.7557 153.08 50.5557 152.88C50.3557 152.68 50.2557 152.44 50.2557 152.16C50.2557 151.88 50.3557 151.647 50.5557 151.46C50.7557 151.26 51.0024 151.16 51.2957 151.16C51.589 151.16 51.8357 151.253 52.0357 151.44C52.2357 151.627 52.3357 151.86 52.3357 152.14C52.3357 152.433 52.2357 152.68 52.0357 152.88C51.849 153.08 51.6024 153.18 51.2957 153.18ZM58.7668 166.1C57.9001 166.1 57.0801 165.98 56.3068 165.74C55.5335 165.487 54.9268 165.173 54.4868 164.8L55.1268 163.68C55.5535 164 56.1001 164.28 56.7668 164.52C57.4335 164.747 58.1335 164.86 58.8668 164.86C59.8668 164.86 60.5868 164.707 61.0268 164.4C61.4668 164.08 61.6868 163.66 61.6868 163.14C61.6868 162.753 61.5601 162.453 61.3068 162.24C61.0668 162.013 60.7468 161.847 60.3468 161.74C59.9468 161.62 59.5001 161.52 59.0068 161.44C58.5135 161.36 58.0201 161.267 57.5268 161.16C57.0468 161.053 56.6068 160.9 56.2068 160.7C55.8068 160.487 55.4801 160.2 55.2268 159.84C54.9868 159.48 54.8668 159 54.8668 158.4C54.8668 157.827 55.0268 157.313 55.3468 156.86C55.6668 156.407 56.1335 156.053 56.7468 155.8C57.3735 155.533 58.1335 155.4 59.0268 155.4C59.7068 155.4 60.3868 155.493 61.0668 155.68C61.7468 155.853 62.3068 156.087 62.7468 156.38L62.1268 157.52C61.6601 157.2 61.1601 156.973 60.6268 156.84C60.0935 156.693 59.5601 156.62 59.0268 156.62C58.0801 156.62 57.3801 156.787 56.9268 157.12C56.4868 157.44 56.2668 157.853 56.2668 158.36C56.2668 158.76 56.3868 159.073 56.6268 159.3C56.8801 159.527 57.2068 159.707 57.6068 159.84C58.0201 159.96 58.4668 160.06 58.9468 160.14C59.4401 160.22 59.9268 160.32 60.4068 160.44C60.9001 160.547 61.3468 160.7 61.7468 160.9C62.1601 161.087 62.4868 161.36 62.7268 161.72C62.9801 162.067 63.1068 162.527 63.1068 163.1C63.1068 163.713 62.9335 164.247 62.5868 164.7C62.2535 165.14 61.7601 165.487 61.1068 165.74C60.4668 165.98 59.6868 166.1 58.7668 166.1ZM69.0324 166.1C68.0458 166.1 67.2858 165.833 66.7524 165.3C66.2191 164.767 65.9524 164.013 65.9524 163.04V153.18H67.3724V162.96C67.3724 163.573 67.5258 164.047 67.8324 164.38C68.1524 164.713 68.6058 164.88 69.1924 164.88C69.8191 164.88 70.3391 164.7 70.7524 164.34L71.2524 165.36C70.9724 165.613 70.6324 165.8 70.2324 165.92C69.8458 166.04 69.4458 166.1 69.0324 166.1ZM64.0724 156.68V155.5H70.5724V156.68H64.0724ZM73.8374 166V155.5H75.1974V158.36L75.0574 157.86C75.3508 157.06 75.8441 156.453 76.5374 156.04C77.2308 155.613 78.0908 155.4 79.1174 155.4V156.78C79.0641 156.78 79.0108 156.78 78.9574 156.78C78.9041 156.767 78.8508 156.76 78.7974 156.76C77.6908 156.76 76.8241 157.1 76.1974 157.78C75.5708 158.447 75.2574 159.4 75.2574 160.64V166H73.8374ZM87.5073 166V163.68L87.4473 163.3V159.42C87.4473 158.527 87.1939 157.84 86.6873 157.36C86.1939 156.88 85.4539 156.64 84.4673 156.64C83.7873 156.64 83.1406 156.753 82.5273 156.98C81.9139 157.207 81.3939 157.507 80.9673 157.88L80.3273 156.82C80.8606 156.367 81.5006 156.02 82.2473 155.78C82.9939 155.527 83.7806 155.4 84.6073 155.4C85.9673 155.4 87.0139 155.74 87.7473 156.42C88.4939 157.087 88.8673 158.107 88.8673 159.48V166H87.5073ZM83.8873 166.1C83.1006 166.1 82.4139 165.973 81.8273 165.72C81.2539 165.453 80.8139 165.093 80.5073 164.64C80.2006 164.173 80.0473 163.64 80.0473 163.04C80.0473 162.493 80.1739 162 80.4273 161.56C80.6939 161.107 81.1206 160.747 81.7073 160.48C82.3073 160.2 83.1073 160.06 84.1073 160.06H87.7273V161.12H84.1473C83.1339 161.12 82.4273 161.3 82.0273 161.66C81.6406 162.02 81.4473 162.467 81.4473 163C81.4473 163.6 81.6806 164.08 82.1473 164.44C82.6139 164.8 83.2673 164.98 84.1073 164.98C84.9073 164.98 85.5939 164.8 86.1673 164.44C86.7539 164.067 87.1806 163.533 87.4473 162.84L87.7673 163.82C87.5006 164.513 87.0339 165.067 86.3673 165.48C85.7139 165.893 84.8873 166.1 83.8873 166.1ZM96.0441 166.1C95.0575 166.1 94.2975 165.833 93.7641 165.3C93.2308 164.767 92.9641 164.013 92.9641 163.04V153.18H94.3841V162.96C94.3841 163.573 94.5375 164.047 94.8441 164.38C95.1641 164.713 95.6175 164.88 96.2041 164.88C96.8308 164.88 97.3508 164.7 97.7641 164.34L98.2641 165.36C97.9841 165.613 97.6441 165.8 97.2441 165.92C96.8575 166.04 96.4575 166.1 96.0441 166.1ZM91.0841 156.68V155.5H97.5841V156.68H91.0841ZM100.849 166V155.5H102.269V166H100.849ZM101.569 153.18C101.276 153.18 101.029 153.08 100.829 152.88C100.629 152.68 100.529 152.44 100.529 152.16C100.529 151.88 100.629 151.647 100.829 151.46C101.029 151.26 101.276 151.16 101.569 151.16C101.862 151.16 102.109 151.253 102.309 151.44C102.509 151.627 102.609 151.86 102.609 152.14C102.609 152.433 102.509 152.68 102.309 152.88C102.122 153.08 101.876 153.18 101.569 153.18ZM110.5 166.1C109.487 166.1 108.574 165.873 107.76 165.42C106.96 164.953 106.327 164.32 105.86 163.52C105.394 162.707 105.16 161.78 105.16 160.74C105.16 159.687 105.394 158.76 105.86 157.96C106.327 157.16 106.96 156.533 107.76 156.08C108.56 155.627 109.474 155.4 110.5 155.4C111.54 155.4 112.46 155.627 113.26 156.08C114.074 156.533 114.707 157.16 115.16 157.96C115.627 158.76 115.86 159.687 115.86 160.74C115.86 161.78 115.627 162.707 115.16 163.52C114.707 164.32 114.074 164.953 113.26 165.42C112.447 165.873 111.527 166.1 110.5 166.1ZM110.5 164.84C111.26 164.84 111.934 164.673 112.52 164.34C113.107 163.993 113.567 163.513 113.9 162.9C114.247 162.273 114.42 161.553 114.42 160.74C114.42 159.913 114.247 159.193 113.9 158.58C113.567 157.967 113.107 157.493 112.52 157.16C111.934 156.813 111.267 156.64 110.52 156.64C109.774 156.64 109.107 156.813 108.52 157.16C107.934 157.493 107.467 157.967 107.12 158.58C106.774 159.193 106.6 159.913 106.6 160.74C106.6 161.553 106.774 162.273 107.12 162.9C107.467 163.513 107.934 163.993 108.52 164.34C109.107 164.673 109.767 164.84 110.5 164.84ZM124.119 155.4C124.973 155.4 125.719 155.567 126.359 155.9C127.013 156.22 127.519 156.713 127.879 157.38C128.253 158.047 128.439 158.887 128.439 159.9V166H127.019V160.04C127.019 158.933 126.739 158.1 126.179 157.54C125.633 156.967 124.859 156.68 123.859 156.68C123.113 156.68 122.459 156.833 121.899 157.14C121.353 157.433 120.926 157.867 120.619 158.44C120.326 159 120.179 159.68 120.179 160.48V166H118.759V155.5H120.119V158.38L119.899 157.84C120.233 157.08 120.766 156.487 121.499 156.06C122.233 155.62 123.106 155.4 124.119 155.4ZM141.669 166.12C140.629 166.12 139.629 165.953 138.669 165.62C137.723 165.273 136.989 164.833 136.469 164.3L137.049 163.16C137.543 163.64 138.203 164.047 139.029 164.38C139.869 164.7 140.749 164.86 141.669 164.86C142.549 164.86 143.263 164.753 143.809 164.54C144.369 164.313 144.776 164.013 145.029 163.64C145.296 163.267 145.429 162.853 145.429 162.4C145.429 161.853 145.269 161.413 144.949 161.08C144.643 160.747 144.236 160.487 143.729 160.3C143.223 160.1 142.663 159.927 142.049 159.78C141.436 159.633 140.823 159.48 140.209 159.32C139.596 159.147 139.029 158.92 138.509 158.64C138.003 158.36 137.589 157.993 137.269 157.54C136.963 157.073 136.809 156.467 136.809 155.72C136.809 155.027 136.989 154.393 137.349 153.82C137.723 153.233 138.289 152.767 139.049 152.42C139.809 152.06 140.783 151.88 141.969 151.88C142.756 151.88 143.536 151.993 144.309 152.22C145.083 152.433 145.749 152.733 146.309 153.12L145.809 154.3C145.209 153.9 144.569 153.607 143.889 153.42C143.223 153.233 142.576 153.14 141.949 153.14C141.109 153.14 140.416 153.253 139.869 153.48C139.323 153.707 138.916 154.013 138.649 154.4C138.396 154.773 138.269 155.2 138.269 155.68C138.269 156.227 138.423 156.667 138.729 157C139.049 157.333 139.463 157.593 139.969 157.78C140.489 157.967 141.056 158.133 141.669 158.28C142.283 158.427 142.889 158.587 143.489 158.76C144.103 158.933 144.663 159.16 145.169 159.44C145.689 159.707 146.103 160.067 146.409 160.52C146.729 160.973 146.889 161.567 146.889 162.3C146.889 162.98 146.703 163.613 146.329 164.2C145.956 164.773 145.383 165.24 144.609 165.6C143.849 165.947 142.869 166.12 141.669 166.12ZM156.394 166V163.68L156.334 163.3V159.42C156.334 158.527 156.081 157.84 155.574 157.36C155.081 156.88 154.341 156.64 153.354 156.64C152.674 156.64 152.027 156.753 151.414 156.98C150.801 157.207 150.281 157.507 149.854 157.88L149.214 156.82C149.747 156.367 150.387 156.02 151.134 155.78C151.881 155.527 152.667 155.4 153.494 155.4C154.854 155.4 155.901 155.74 156.634 156.42C157.381 157.087 157.754 158.107 157.754 159.48V166H156.394ZM152.774 166.1C151.987 166.1 151.301 165.973 150.714 165.72C150.141 165.453 149.701 165.093 149.394 164.64C149.087 164.173 148.934 163.64 148.934 163.04C148.934 162.493 149.061 162 149.314 161.56C149.581 161.107 150.007 160.747 150.594 160.48C151.194 160.2 151.994 160.06 152.994 160.06H156.614V161.12H153.034C152.021 161.12 151.314 161.3 150.914 161.66C150.527 162.02 150.334 162.467 150.334 163C150.334 163.6 150.567 164.08 151.034 164.44C151.501 164.8 152.154 164.98 152.994 164.98C153.794 164.98 154.481 164.8 155.054 164.44C155.641 164.067 156.067 163.533 156.334 162.84L156.654 163.82C156.387 164.513 155.921 165.067 155.254 165.48C154.601 165.893 153.774 166.1 152.774 166.1ZM161.611 166V151.16H163.031V166H161.611ZM171.442 166.1C170.349 166.1 169.389 165.873 168.562 165.42C167.735 164.953 167.089 164.32 166.622 163.52C166.155 162.707 165.922 161.78 165.922 160.74C165.922 159.7 166.142 158.78 166.582 157.98C167.035 157.18 167.649 156.553 168.422 156.1C169.209 155.633 170.089 155.4 171.062 155.4C172.049 155.4 172.922 155.627 173.682 156.08C174.455 156.52 175.062 157.147 175.502 157.96C175.942 158.76 176.162 159.687 176.162 160.74C176.162 160.807 176.155 160.88 176.142 160.96C176.142 161.027 176.142 161.1 176.142 161.18H167.002V160.12H175.382L174.822 160.54C174.822 159.78 174.655 159.107 174.322 158.52C174.002 157.92 173.562 157.453 173.002 157.12C172.442 156.787 171.795 156.62 171.062 156.62C170.342 156.62 169.695 156.787 169.122 157.12C168.549 157.453 168.102 157.92 167.782 158.52C167.462 159.12 167.302 159.807 167.302 160.58V160.8C167.302 161.6 167.475 162.307 167.822 162.92C168.182 163.52 168.675 163.993 169.302 164.34C169.942 164.673 170.669 164.84 171.482 164.84C172.122 164.84 172.715 164.727 173.262 164.5C173.822 164.273 174.302 163.927 174.702 163.46L175.502 164.38C175.035 164.94 174.449 165.367 173.742 165.66C173.049 165.953 172.282 166.1 171.442 166.1ZM184.587 166V152H189.827C191.013 152 192.033 152.193 192.887 152.58C193.74 152.953 194.393 153.5 194.847 154.22C195.313 154.927 195.547 155.787 195.547 156.8C195.547 157.787 195.313 158.64 194.847 159.36C194.393 160.067 193.74 160.613 192.887 161C192.033 161.387 191.013 161.58 189.827 161.58H185.407L186.067 160.88V166H184.587ZM186.067 161L185.407 160.28H189.787C191.187 160.28 192.247 159.98 192.967 159.38C193.7 158.767 194.067 157.907 194.067 156.8C194.067 155.68 193.7 154.813 192.967 154.2C192.247 153.587 191.187 153.28 189.787 153.28H185.407L186.067 152.58V161ZM198.193 166V155.5H199.553V158.36L199.413 157.86C199.706 157.06 200.2 156.453 200.893 156.04C201.586 155.613 202.446 155.4 203.473 155.4V156.78C203.42 156.78 203.366 156.78 203.313 156.78C203.26 156.767 203.206 156.76 203.153 156.76C202.046 156.76 201.18 157.1 200.553 157.78C199.926 158.447 199.613 159.4 199.613 160.64V166H198.193ZM206.064 166V155.5H207.484V166H206.064ZM206.784 153.18C206.491 153.18 206.244 153.08 206.044 152.88C205.844 152.68 205.744 152.44 205.744 152.16C205.744 151.88 205.844 151.647 206.044 151.46C206.244 151.26 206.491 151.16 206.784 151.16C207.077 151.16 207.324 151.253 207.524 151.44C207.724 151.627 207.824 151.86 207.824 152.14C207.824 152.433 207.724 152.68 207.524 152.88C207.337 153.08 207.091 153.18 206.784 153.18ZM215.795 166.1C214.755 166.1 213.822 165.873 212.995 165.42C212.182 164.953 211.542 164.32 211.075 163.52C210.608 162.707 210.375 161.78 210.375 160.74C210.375 159.687 210.608 158.76 211.075 157.96C211.542 157.16 212.182 156.533 212.995 156.08C213.822 155.627 214.755 155.4 215.795 155.4C216.688 155.4 217.495 155.573 218.215 155.92C218.935 156.267 219.502 156.787 219.915 157.48L218.855 158.2C218.495 157.667 218.048 157.273 217.515 157.02C216.982 156.767 216.402 156.64 215.775 156.64C215.028 156.64 214.355 156.813 213.755 157.16C213.155 157.493 212.682 157.967 212.335 158.58C211.988 159.193 211.815 159.913 211.815 160.74C211.815 161.567 211.988 162.287 212.335 162.9C212.682 163.513 213.155 163.993 213.755 164.34C214.355 164.673 215.028 164.84 215.775 164.84C216.402 164.84 216.982 164.713 217.515 164.46C218.048 164.207 218.495 163.82 218.855 163.3L219.915 164.02C219.502 164.7 218.935 165.22 218.215 165.58C217.495 165.927 216.688 166.1 215.795 166.1ZM226.989 166.1C225.895 166.1 224.935 165.873 224.109 165.42C223.282 164.953 222.635 164.32 222.169 163.52C221.702 162.707 221.469 161.78 221.469 160.74C221.469 159.7 221.689 158.78 222.129 157.98C222.582 157.18 223.195 156.553 223.969 156.1C224.755 155.633 225.635 155.4 226.609 155.4C227.595 155.4 228.469 155.627 229.229 156.08C230.002 156.52 230.609 157.147 231.049 157.96C231.489 158.76 231.709 159.687 231.709 160.74C231.709 160.807 231.702 160.88 231.689 160.96C231.689 161.027 231.689 161.1 231.689 161.18H222.549V160.12H230.929L230.369 160.54C230.369 159.78 230.202 159.107 229.869 158.52C229.549 157.92 229.109 157.453 228.549 157.12C227.989 156.787 227.342 156.62 226.609 156.62C225.889 156.62 225.242 156.787 224.669 157.12C224.095 157.453 223.649 157.92 223.329 158.52C223.009 159.12 222.849 159.807 222.849 160.58V160.8C222.849 161.6 223.022 162.307 223.369 162.92C223.729 163.52 224.222 163.993 224.849 164.34C225.489 164.673 226.215 164.84 227.029 164.84C227.669 164.84 228.262 164.727 228.809 164.5C229.369 164.273 229.849 163.927 230.249 163.46L231.049 164.38C230.582 164.94 229.995 165.367 229.289 165.66C228.595 165.953 227.829 166.1 226.989 166.1Z" fill="#3C3C45"/>
<line x1="326" y1="4.37114e-08" x2="326" y2="172" stroke="#3C3C45" stroke-width="2"/>
<g clip-path="url(#clip1_1190_1733)">
<path d="M517.728 40.0645L518.816 19.686C518.915 18.4989 518.024 17.6086 516.837 17.8064C515.65 17.9053 514.661 18.9935 514.562 20.0817L513.474 40.5591C512.386 41.2516 511.495 42.2408 511.1 43.4279L485.775 45.5053C484.588 45.6043 483.599 46.5935 483.5 47.7806C483.401 48.9677 484.291 49.7591 485.478 49.7591C485.478 49.7591 485.478 49.7591 485.577 49.7591L511.594 47.4838C512.386 48.4731 513.573 48.9677 514.958 48.9677C517.53 48.8688 519.805 46.6924 520.003 44.1204C520.102 42.2408 519.212 40.757 517.728 40.0645Z" fill="#FF0000"/>
<path d="M537.315 49.66L522.377 51.5396L523.069 43.9224L538.798 10.8815L549.68 9.49658L546.811 41.2514L551.659 40.6579L550.966 48.0772L546.119 48.6708L545.031 60.6407L536.226 61.7288L537.315 49.66ZM538.007 42.3396L539.986 20.5762L530.489 43.2299L538.007 42.3396Z" fill="#002230"/>
<path d="M552.252 45.1096C552.549 42.2408 553.241 39.6687 554.428 37.4924C555.615 35.316 557.198 33.5354 559.177 32.2494C557.792 31.2601 556.704 29.8752 555.912 28.0945C555.121 26.3139 554.923 24.0386 555.121 21.2687C555.516 17.1139 556.901 13.7504 559.177 11.0795C561.551 8.50743 564.716 6.92464 568.772 6.43001C572.828 5.93539 575.697 6.72679 577.676 8.70528C579.555 10.7827 580.347 13.8494 579.951 18.0042C579.654 20.873 579.061 23.3461 577.972 25.3246C576.884 27.4021 575.598 29.0838 574.015 30.3698C575.796 31.1612 577.082 32.5461 577.873 34.6236C578.665 36.701 578.863 39.1741 578.665 42.2408C578.269 46.9892 576.785 50.8472 574.51 53.716C572.136 56.5849 568.673 58.3655 564.123 58.959C555.22 60.0472 551.362 55.3978 552.252 45.1096ZM568.179 48.8687C568.772 47.187 569.168 45.1096 569.465 42.6365C569.663 40.3612 569.564 38.4816 569.168 37.1956C568.772 35.9096 567.783 35.316 566.2 35.5139C564.618 35.7117 563.529 36.6021 562.837 38.1848C562.144 39.7676 561.65 41.7461 561.452 44.2193C561.254 46.4945 561.353 48.3741 561.749 49.759C562.144 51.144 563.134 51.8365 564.716 51.6386C566.398 51.4408 567.585 50.5504 568.179 48.8687ZM571.147 19.2902C571.344 17.4107 571.147 16.0257 570.652 15.0365C570.157 14.0472 569.366 13.6515 568.179 13.7504C566.992 13.8494 566.101 14.5418 565.31 15.7289C564.618 16.916 564.123 18.3999 564.024 20.2795C563.529 25.5225 564.519 27.9956 566.893 27.6988C569.267 27.3031 570.652 24.5332 571.147 19.2902Z" fill="#002230"/>
<path d="M518.618 68.159L523.268 67.5655L522.377 77.2601L526.433 76.7655L527.323 67.0708L531.973 66.4773L529.797 90.2192L525.147 90.8128L526.136 80.2278L522.08 80.7225L521.091 91.3074L516.343 91.9999L518.618 68.159Z" fill="#002230"/>
<path d="M533.259 88.2406C532.368 87.0535 531.973 85.1739 532.269 82.6019L533.061 73.6986C533.259 71.1266 533.951 69.1481 535.138 67.7632C536.325 66.3782 538.106 65.4879 540.48 65.1911C542.854 64.8943 544.536 65.29 545.525 66.4771C546.416 67.6642 546.811 69.5438 546.613 72.0169L545.822 80.9202C545.624 83.4922 544.932 85.4707 543.745 86.9546C542.557 88.4384 540.777 89.3288 538.403 89.6255C535.831 89.8234 534.149 89.4277 533.259 88.2406ZM540.282 85.075C540.579 84.4814 540.777 83.69 540.876 82.7008L541.865 71.4234C541.964 70.4341 541.865 69.7417 541.667 69.247C541.469 68.7524 540.975 68.5546 540.183 68.6535C539.392 68.7524 538.798 69.0492 538.502 69.6427C538.205 70.2363 538.007 71.0277 537.908 72.0169L536.919 83.2943C536.82 84.2836 536.919 85.075 537.117 85.5696C537.314 86.0642 537.809 86.2621 538.699 86.1632C539.392 85.9653 539.887 85.6685 540.282 85.075Z" fill="#002230"/>
<path d="M549.285 87.2513C548.394 86.7567 547.801 85.9653 547.504 84.8772C547.207 83.789 547.108 82.404 547.306 80.6234L548.79 64.3997L553.34 63.8062L551.758 80.7223C551.659 81.8105 551.659 82.7008 551.956 83.2944C552.153 83.8879 552.648 84.1847 553.538 84.0858C554.33 83.9868 554.923 83.5911 555.22 82.8987C555.517 82.2062 555.715 81.3159 555.814 80.1288L557.396 63.3116L562.046 62.718L560.562 78.9417C560.364 80.7223 560.067 82.2062 559.573 83.3933C559.078 84.5804 558.287 85.5696 557.297 86.2621C556.308 86.9546 554.923 87.4492 553.242 87.647C551.461 87.8449 550.175 87.746 549.285 87.2513Z" fill="#002230"/>
<path d="M563.827 62.5203L569.762 61.7289C572.235 61.4321 574.016 61.63 575.203 62.4214C576.39 63.2128 576.786 64.7956 576.588 67.0708C576.489 68.6536 576.093 69.9396 575.599 70.9289C575.104 71.9181 574.313 72.7095 573.225 73.402L575.302 84.5805L570.554 85.174L568.971 74.688L567.289 74.8859L566.3 85.6687L561.65 86.2622L563.827 62.5203ZM568.971 71.9181C570.059 71.8192 570.85 71.4235 571.345 70.83C571.84 70.2364 572.136 69.3461 572.235 68.159C572.334 66.9719 572.235 66.1805 571.84 65.6859C571.543 65.1913 570.85 64.9934 569.762 65.0923L568.179 65.2902L567.586 72.116L568.971 71.9181Z" fill="#002230"/>
<path d="M577.973 82.7998C576.984 81.7116 576.588 79.931 576.786 77.4579L580.842 76.2708C580.743 77.7546 580.842 78.8428 581.138 79.5353C581.435 80.2278 581.93 80.5245 582.721 80.4256C583.315 80.3267 583.711 80.1288 584.007 79.7331C584.304 79.3374 584.403 78.8428 584.502 78.2493C584.601 77.3589 584.502 76.5676 584.106 75.974C583.809 75.3805 583.216 74.688 582.425 74.0944L580.248 72.2149C579.358 71.5224 578.764 70.731 578.369 69.8407C577.973 68.9503 577.775 67.8622 577.973 66.5762C578.171 64.5977 578.863 63.1138 580.05 61.9267C581.237 60.7396 582.82 60.0471 584.799 59.7503C586.876 59.4536 588.261 59.9482 588.954 61.0364C589.646 62.2235 589.943 63.7073 589.943 65.5869L585.887 66.6751C585.986 65.3891 585.887 64.4987 585.689 63.9052C585.491 63.3116 585.095 63.1138 584.403 63.2127C583.908 63.3116 583.513 63.5095 583.117 64.0041C582.82 64.3998 582.622 64.8944 582.523 65.488C582.425 66.2794 582.523 66.8729 582.82 67.3675C583.117 67.8622 583.612 68.3568 584.205 68.9503L586.283 70.731C587.272 71.6213 588.063 72.5116 588.558 73.5998C589.052 74.5891 589.25 75.8751 589.151 77.3589C589.052 78.4471 588.756 79.5353 588.162 80.5245C587.569 81.5138 586.876 82.3052 585.887 82.8987C584.898 83.4923 583.908 83.888 582.721 84.0858C580.446 84.2837 578.863 83.888 577.973 82.7998Z" fill="#002230"/>
<path d="M513.375 82.0085C512.386 82.1074 511.495 82.2064 510.506 82.3053C489.831 83.2945 474.695 67.1698 476.872 46.5935C478.949 25.8193 497.547 8.21066 518.222 7.32033C523.96 7.02356 529.302 8.11173 533.951 10.1892L535.138 7.91388L543.547 6.72679C536.82 2.07732 528.411 -0.395794 519.013 -9.53712e-05C494.282 1.08808 472.123 22.0601 469.551 46.7913C466.979 71.5225 485.082 90.615 509.715 89.4279C510.704 89.4279 511.693 89.3289 512.682 89.1311L513.375 82.0085Z" fill="#FF0000"/>
</g>
<path d="M450.022 142V128H455.262C456.449 128 457.469 128.193 458.322 128.58C459.176 128.953 459.829 129.5 460.282 130.22C460.749 130.927 460.982 131.787 460.982 132.8C460.982 133.787 460.749 134.64 460.282 135.36C459.829 136.067 459.176 136.613 458.322 137C457.469 137.373 456.449 137.56 455.262 137.56H450.842L451.502 136.88V142H450.022ZM459.582 142L455.982 136.92H457.582L461.202 142H459.582ZM451.502 137L450.842 136.3H455.222C456.622 136.3 457.682 135.993 458.402 135.38C459.136 134.767 459.502 133.907 459.502 132.8C459.502 131.68 459.136 130.813 458.402 130.2C457.682 129.587 456.622 129.28 455.222 129.28H450.842L451.502 128.58V137ZM468.635 142.1C467.542 142.1 466.582 141.873 465.755 141.42C464.929 140.953 464.282 140.32 463.815 139.52C463.349 138.707 463.115 137.78 463.115 136.74C463.115 135.7 463.335 134.78 463.775 133.98C464.229 133.18 464.842 132.553 465.615 132.1C466.402 131.633 467.282 131.4 468.255 131.4C469.242 131.4 470.115 131.627 470.875 132.08C471.649 132.52 472.255 133.147 472.695 133.96C473.135 134.76 473.355 135.687 473.355 136.74C473.355 136.807 473.349 136.88 473.335 136.96C473.335 137.027 473.335 137.1 473.335 137.18H464.195V136.12H472.575L472.015 136.54C472.015 135.78 471.849 135.107 471.515 134.52C471.195 133.92 470.755 133.453 470.195 133.12C469.635 132.787 468.989 132.62 468.255 132.62C467.535 132.62 466.889 132.787 466.315 133.12C465.742 133.453 465.295 133.92 464.975 134.52C464.655 135.12 464.495 135.807 464.495 136.58V136.8C464.495 137.6 464.669 138.307 465.015 138.92C465.375 139.52 465.869 139.993 466.495 140.34C467.135 140.673 467.862 140.84 468.675 140.84C469.315 140.84 469.909 140.727 470.455 140.5C471.015 140.273 471.495 139.927 471.895 139.46L472.695 140.38C472.229 140.94 471.642 141.367 470.935 141.66C470.242 141.953 469.475 142.1 468.635 142.1ZM481.606 131.4C482.459 131.4 483.206 131.567 483.846 131.9C484.499 132.22 485.006 132.713 485.366 133.38C485.739 134.047 485.926 134.887 485.926 135.9V142H484.506V136.04C484.506 134.933 484.226 134.1 483.666 133.54C483.119 132.967 482.346 132.68 481.346 132.68C480.599 132.68 479.946 132.833 479.386 133.14C478.839 133.433 478.412 133.867 478.106 134.44C477.812 135 477.666 135.68 477.666 136.48V142H476.246V131.5H477.606V134.38L477.386 133.84C477.719 133.08 478.252 132.487 478.986 132.06C479.719 131.62 480.592 131.4 481.606 131.4ZM493.081 142.1C492.095 142.1 491.335 141.833 490.801 141.3C490.268 140.767 490.001 140.013 490.001 139.04V129.18H491.421V138.96C491.421 139.573 491.575 140.047 491.881 140.38C492.201 140.713 492.655 140.88 493.241 140.88C493.868 140.88 494.388 140.7 494.801 140.34L495.301 141.36C495.021 141.613 494.681 141.8 494.281 141.92C493.895 142.04 493.495 142.1 493.081 142.1ZM488.121 132.68V131.5H494.621V132.68H488.121ZM504.466 142V139.68L504.406 139.3V135.42C504.406 134.527 504.153 133.84 503.646 133.36C503.153 132.88 502.413 132.64 501.426 132.64C500.746 132.64 500.1 132.753 499.486 132.98C498.873 133.207 498.353 133.507 497.926 133.88L497.286 132.82C497.82 132.367 498.46 132.02 499.206 131.78C499.953 131.527 500.74 131.4 501.566 131.4C502.926 131.4 503.973 131.74 504.706 132.42C505.453 133.087 505.826 134.107 505.826 135.48V142H504.466ZM500.846 142.1C500.06 142.1 499.373 141.973 498.786 141.72C498.213 141.453 497.773 141.093 497.466 140.64C497.16 140.173 497.006 139.64 497.006 139.04C497.006 138.493 497.133 138 497.386 137.56C497.653 137.107 498.08 136.747 498.666 136.48C499.266 136.2 500.066 136.06 501.066 136.06H504.686V137.12H501.106C500.093 137.12 499.386 137.3 498.986 137.66C498.6 138.02 498.406 138.467 498.406 139C498.406 139.6 498.64 140.08 499.106 140.44C499.573 140.8 500.226 140.98 501.066 140.98C501.866 140.98 502.553 140.8 503.126 140.44C503.713 140.067 504.14 139.533 504.406 138.84L504.726 139.82C504.46 140.513 503.993 141.067 503.326 141.48C502.673 141.893 501.846 142.1 500.846 142.1ZM509.683 142V127.16H511.103V142H509.683ZM517.874 142.1C517.008 142.1 516.188 141.98 515.414 141.74C514.641 141.487 514.034 141.173 513.594 140.8L514.234 139.68C514.661 140 515.208 140.28 515.874 140.52C516.541 140.747 517.241 140.86 517.974 140.86C518.974 140.86 519.694 140.707 520.134 140.4C520.574 140.08 520.794 139.66 520.794 139.14C520.794 138.753 520.668 138.453 520.414 138.24C520.174 138.013 519.854 137.847 519.454 137.74C519.054 137.62 518.608 137.52 518.114 137.44C517.621 137.36 517.128 137.267 516.634 137.16C516.154 137.053 515.714 136.9 515.314 136.7C514.914 136.487 514.588 136.2 514.334 135.84C514.094 135.48 513.974 135 513.974 134.4C513.974 133.827 514.134 133.313 514.454 132.86C514.774 132.407 515.241 132.053 515.854 131.8C516.481 131.533 517.241 131.4 518.134 131.4C518.814 131.4 519.494 131.493 520.174 131.68C520.854 131.853 521.414 132.087 521.854 132.38L521.234 133.52C520.768 133.2 520.268 132.973 519.734 132.84C519.201 132.693 518.668 132.62 518.134 132.62C517.188 132.62 516.488 132.787 516.034 133.12C515.594 133.44 515.374 133.853 515.374 134.36C515.374 134.76 515.494 135.073 515.734 135.3C515.988 135.527 516.314 135.707 516.714 135.84C517.128 135.96 517.574 136.06 518.054 136.14C518.548 136.22 519.034 136.32 519.514 136.44C520.008 136.547 520.454 136.7 520.854 136.9C521.268 137.087 521.594 137.36 521.834 137.72C522.088 138.067 522.214 138.527 522.214 139.1C522.214 139.713 522.041 140.247 521.694 140.7C521.361 141.14 520.868 141.487 520.214 141.74C519.574 141.98 518.794 142.1 517.874 142.1ZM529.274 137.2V135.96H534.514V137.2H529.274ZM543.885 142V129.2L545.285 130.6H541.085V128H547.125V142H543.885ZM555.557 142.24C554.411 142.24 553.384 141.96 552.477 141.4C551.571 140.827 550.857 140 550.337 138.92C549.817 137.84 549.557 136.533 549.557 135C549.557 133.467 549.817 132.16 550.337 131.08C550.857 130 551.571 129.18 552.477 128.62C553.384 128.047 554.411 127.76 555.557 127.76C556.717 127.76 557.744 128.047 558.637 128.62C559.544 129.18 560.257 130 560.777 131.08C561.297 132.16 561.557 133.467 561.557 135C561.557 136.533 561.297 137.84 560.777 138.92C560.257 140 559.544 140.827 558.637 141.4C557.744 141.96 556.717 142.24 555.557 142.24ZM555.557 139.5C556.104 139.5 556.577 139.347 556.977 139.04C557.391 138.733 557.711 138.247 557.937 137.58C558.177 136.913 558.297 136.053 558.297 135C558.297 133.947 558.177 133.087 557.937 132.42C557.711 131.753 557.391 131.267 556.977 130.96C556.577 130.653 556.104 130.5 555.557 130.5C555.024 130.5 554.551 130.653 554.137 130.96C553.737 131.267 553.417 131.753 553.177 132.42C552.951 133.087 552.837 133.947 552.837 135C552.837 136.053 552.951 136.913 553.177 137.58C553.417 138.247 553.737 138.733 554.137 139.04C554.551 139.347 555.024 139.5 555.557 139.5ZM565.152 142L574.712 128H577.092L567.532 142H565.152ZM566.372 135.56C565.692 135.56 565.092 135.407 564.572 135.1C564.052 134.78 563.638 134.333 563.332 133.76C563.038 133.173 562.892 132.487 562.892 131.7C562.892 130.913 563.038 130.233 563.332 129.66C563.638 129.087 564.052 128.64 564.572 128.32C565.092 128 565.692 127.84 566.372 127.84C567.052 127.84 567.652 128 568.172 128.32C568.692 128.64 569.098 129.087 569.392 129.66C569.685 130.233 569.832 130.913 569.832 131.7C569.832 132.487 569.685 133.173 569.392 133.76C569.098 134.333 568.692 134.78 568.172 135.1C567.652 135.407 567.052 135.56 566.372 135.56ZM566.372 133.92C566.812 133.92 567.165 133.74 567.432 133.38C567.698 133.007 567.832 132.447 567.832 131.7C567.832 130.953 567.698 130.4 567.432 130.04C567.165 129.667 566.812 129.48 566.372 129.48C565.945 129.48 565.592 129.667 565.312 130.04C565.045 130.4 564.912 130.953 564.912 131.7C564.912 132.433 565.045 132.987 565.312 133.36C565.592 133.733 565.945 133.92 566.372 133.92ZM575.872 142.16C575.205 142.16 574.605 142.007 574.072 141.7C573.552 141.38 573.145 140.933 572.852 140.36C572.558 139.773 572.412 139.087 572.412 138.3C572.412 137.513 572.558 136.833 572.852 136.26C573.145 135.687 573.552 135.24 574.072 134.92C574.605 134.6 575.205 134.44 575.872 134.44C576.565 134.44 577.172 134.6 577.692 134.92C578.212 135.24 578.618 135.687 578.912 136.26C579.205 136.833 579.352 137.513 579.352 138.3C579.352 139.087 579.205 139.773 578.912 140.36C578.618 140.933 578.212 141.38 577.692 141.7C577.172 142.007 576.565 142.16 575.872 142.16ZM575.872 140.52C576.312 140.52 576.665 140.34 576.932 139.98C577.198 139.607 577.332 139.047 577.332 138.3C577.332 137.567 577.198 137.013 576.932 136.64C576.665 136.267 576.312 136.08 575.872 136.08C575.445 136.08 575.092 136.267 574.812 136.64C574.545 137 574.412 137.553 574.412 138.3C574.412 139.047 574.545 139.607 574.812 139.98C575.092 140.34 575.445 140.52 575.872 140.52ZM591.385 142.1C590.372 142.1 589.458 141.873 588.645 141.42C587.845 140.953 587.212 140.32 586.745 139.52C586.278 138.707 586.045 137.78 586.045 136.74C586.045 135.687 586.278 134.76 586.745 133.96C587.212 133.16 587.845 132.533 588.645 132.08C589.445 131.627 590.358 131.4 591.385 131.4C592.425 131.4 593.345 131.627 594.145 132.08C594.958 132.533 595.592 133.16 596.045 133.96C596.512 134.76 596.745 135.687 596.745 136.74C596.745 137.78 596.512 138.707 596.045 139.52C595.592 140.32 594.958 140.953 594.145 141.42C593.332 141.873 592.412 142.1 591.385 142.1ZM591.385 140.84C592.145 140.84 592.818 140.673 593.405 140.34C593.992 139.993 594.452 139.513 594.785 138.9C595.132 138.273 595.305 137.553 595.305 136.74C595.305 135.913 595.132 135.193 594.785 134.58C594.452 133.967 593.992 133.493 593.405 133.16C592.818 132.813 592.152 132.64 591.405 132.64C590.658 132.64 589.992 132.813 589.405 133.16C588.818 133.493 588.352 133.967 588.005 134.58C587.658 135.193 587.485 135.913 587.485 136.74C587.485 137.553 587.658 138.273 588.005 138.9C588.352 139.513 588.818 139.993 589.405 140.34C589.992 140.673 590.652 140.84 591.385 140.84ZM599.884 142V130.18C599.884 129.247 600.157 128.493 600.704 127.92C601.251 127.347 602.037 127.06 603.064 127.06C603.464 127.06 603.851 127.113 604.224 127.22C604.597 127.327 604.911 127.493 605.164 127.72L604.684 128.78C604.484 128.607 604.251 128.48 603.984 128.4C603.717 128.307 603.431 128.26 603.124 128.26C602.524 128.26 602.064 128.427 601.744 128.76C601.424 129.093 601.264 129.587 601.264 130.24V131.84L601.304 132.5V142H599.884ZM598.004 132.68V131.5H604.504V132.68H598.004ZM606.7 142V130.18C606.7 129.247 606.974 128.493 607.52 127.92C608.067 127.347 608.854 127.06 609.88 127.06C610.28 127.06 610.667 127.113 611.04 127.22C611.414 127.327 611.727 127.493 611.98 127.72L611.5 128.78C611.3 128.607 611.067 128.48 610.8 128.4C610.534 128.307 610.247 128.26 609.94 128.26C609.34 128.26 608.88 128.427 608.56 128.76C608.24 129.093 608.08 129.587 608.08 130.24V131.84L608.12 132.5V142H606.7ZM604.82 132.68V131.5H611.32V132.68H604.82ZM419.661 166V152H424.901C426.088 152 427.108 152.193 427.961 152.58C428.814 152.953 429.468 153.5 429.921 154.22C430.388 154.927 430.621 155.787 430.621 156.8C430.621 157.787 430.388 158.64 429.921 159.36C429.468 160.067 428.814 160.613 427.961 161C427.108 161.373 426.088 161.56 424.901 161.56H420.481L421.141 160.88V166H419.661ZM429.221 166L425.621 160.92H427.221L430.841 166H429.221ZM421.141 161L420.481 160.3H424.861C426.261 160.3 427.321 159.993 428.041 159.38C428.774 158.767 429.141 157.907 429.141 156.8C429.141 155.68 428.774 154.813 428.041 154.2C427.321 153.587 426.261 153.28 424.861 153.28H420.481L421.141 152.58V161ZM438.274 166.1C437.181 166.1 436.221 165.873 435.394 165.42C434.567 164.953 433.921 164.32 433.454 163.52C432.987 162.707 432.754 161.78 432.754 160.74C432.754 159.7 432.974 158.78 433.414 157.98C433.867 157.18 434.481 156.553 435.254 156.1C436.041 155.633 436.921 155.4 437.894 155.4C438.881 155.4 439.754 155.627 440.514 156.08C441.287 156.52 441.894 157.147 442.334 157.96C442.774 158.76 442.994 159.687 442.994 160.74C442.994 160.807 442.987 160.88 442.974 160.96C442.974 161.027 442.974 161.1 442.974 161.18H433.834V160.12H442.214L441.654 160.54C441.654 159.78 441.487 159.107 441.154 158.52C440.834 157.92 440.394 157.453 439.834 157.12C439.274 156.787 438.627 156.62 437.894 156.62C437.174 156.62 436.527 156.787 435.954 157.12C435.381 157.453 434.934 157.92 434.614 158.52C434.294 159.12 434.134 159.807 434.134 160.58V160.8C434.134 161.6 434.307 162.307 434.654 162.92C435.014 163.52 435.507 163.993 436.134 164.34C436.774 164.673 437.501 164.84 438.314 164.84C438.954 164.84 439.547 164.727 440.094 164.5C440.654 164.273 441.134 163.927 441.534 163.46L442.334 164.38C441.867 164.94 441.281 165.367 440.574 165.66C439.881 165.953 439.114 166.1 438.274 166.1ZM450.364 169.98C449.404 169.98 448.484 169.84 447.604 169.56C446.724 169.28 446.011 168.88 445.464 168.36L446.184 167.28C446.678 167.72 447.284 168.067 448.004 168.32C448.738 168.587 449.511 168.72 450.324 168.72C451.658 168.72 452.638 168.407 453.264 167.78C453.891 167.167 454.204 166.207 454.204 164.9V162.28L454.404 160.48L454.264 158.68V155.5H455.624V164.72C455.624 166.533 455.178 167.86 454.284 168.7C453.404 169.553 452.098 169.98 450.364 169.98ZM450.104 165.6C449.104 165.6 448.204 165.387 447.404 164.96C446.604 164.52 445.971 163.913 445.504 163.14C445.051 162.367 444.824 161.48 444.824 160.48C444.824 159.48 445.051 158.6 445.504 157.84C445.971 157.067 446.604 156.467 447.404 156.04C448.204 155.613 449.104 155.4 450.104 155.4C451.038 155.4 451.878 155.593 452.624 155.98C453.371 156.367 453.964 156.94 454.404 157.7C454.844 158.46 455.064 159.387 455.064 160.48C455.064 161.573 454.844 162.5 454.404 163.26C453.964 164.02 453.371 164.6 452.624 165C451.878 165.4 451.038 165.6 450.104 165.6ZM450.244 164.34C451.018 164.34 451.704 164.18 452.304 163.86C452.904 163.527 453.378 163.073 453.724 162.5C454.071 161.913 454.244 161.24 454.244 160.48C454.244 159.72 454.071 159.053 453.724 158.48C453.378 157.907 452.904 157.46 452.304 157.14C451.704 156.807 451.018 156.64 450.244 156.64C449.484 156.64 448.798 156.807 448.184 157.14C447.584 157.46 447.111 157.907 446.764 158.48C446.431 159.053 446.264 159.72 446.264 160.48C446.264 161.24 446.431 161.913 446.764 162.5C447.111 163.073 447.584 163.527 448.184 163.86C448.798 164.18 449.484 164.34 450.244 164.34ZM459.576 166V155.5H460.996V166H459.576ZM460.296 153.18C460.002 153.18 459.756 153.08 459.556 152.88C459.356 152.68 459.256 152.44 459.256 152.16C459.256 151.88 459.356 151.647 459.556 151.46C459.756 151.26 460.002 151.16 460.296 151.16C460.589 151.16 460.836 151.253 461.036 151.44C461.236 151.627 461.336 151.86 461.336 152.14C461.336 152.433 461.236 152.68 461.036 152.88C460.849 153.08 460.602 153.18 460.296 153.18ZM467.767 166.1C466.9 166.1 466.08 165.98 465.307 165.74C464.533 165.487 463.927 165.173 463.487 164.8L464.127 163.68C464.553 164 465.1 164.28 465.767 164.52C466.433 164.747 467.133 164.86 467.867 164.86C468.867 164.86 469.587 164.707 470.027 164.4C470.467 164.08 470.687 163.66 470.687 163.14C470.687 162.753 470.56 162.453 470.307 162.24C470.067 162.013 469.747 161.847 469.347 161.74C468.947 161.62 468.5 161.52 468.007 161.44C467.513 161.36 467.02 161.267 466.527 161.16C466.047 161.053 465.607 160.9 465.207 160.7C464.807 160.487 464.48 160.2 464.227 159.84C463.987 159.48 463.867 159 463.867 158.4C463.867 157.827 464.027 157.313 464.347 156.86C464.667 156.407 465.133 156.053 465.747 155.8C466.373 155.533 467.133 155.4 468.027 155.4C468.707 155.4 469.387 155.493 470.067 155.68C470.747 155.853 471.307 156.087 471.747 156.38L471.127 157.52C470.66 157.2 470.16 156.973 469.627 156.84C469.093 156.693 468.56 156.62 468.027 156.62C467.08 156.62 466.38 156.787 465.927 157.12C465.487 157.44 465.267 157.853 465.267 158.36C465.267 158.76 465.387 159.073 465.627 159.3C465.88 159.527 466.207 159.707 466.607 159.84C467.02 159.96 467.467 160.06 467.947 160.14C468.44 160.22 468.927 160.32 469.407 160.44C469.9 160.547 470.347 160.7 470.747 160.9C471.16 161.087 471.487 161.36 471.727 161.72C471.98 162.067 472.107 162.527 472.107 163.1C472.107 163.713 471.933 164.247 471.587 164.7C471.253 165.14 470.76 165.487 470.107 165.74C469.467 165.98 468.687 166.1 467.767 166.1ZM478.032 166.1C477.046 166.1 476.286 165.833 475.752 165.3C475.219 164.767 474.952 164.013 474.952 163.04V153.18H476.372V162.96C476.372 163.573 476.526 164.047 476.832 164.38C477.152 164.713 477.606 164.88 478.192 164.88C478.819 164.88 479.339 164.7 479.752 164.34L480.252 165.36C479.972 165.613 479.632 165.8 479.232 165.92C478.846 166.04 478.446 166.1 478.032 166.1ZM473.072 156.68V155.5H479.572V156.68H473.072ZM482.837 166V155.5H484.197V158.36L484.057 157.86C484.351 157.06 484.844 156.453 485.537 156.04C486.231 155.613 487.091 155.4 488.117 155.4V156.78C488.064 156.78 488.011 156.78 487.957 156.78C487.904 156.767 487.851 156.76 487.797 156.76C486.691 156.76 485.824 157.1 485.197 157.78C484.571 158.447 484.257 159.4 484.257 160.64V166H482.837ZM496.507 166V163.68L496.447 163.3V159.42C496.447 158.527 496.194 157.84 495.687 157.36C495.194 156.88 494.454 156.64 493.467 156.64C492.787 156.64 492.141 156.753 491.527 156.98C490.914 157.207 490.394 157.507 489.967 157.88L489.327 156.82C489.861 156.367 490.501 156.02 491.247 155.78C491.994 155.527 492.781 155.4 493.607 155.4C494.967 155.4 496.014 155.74 496.747 156.42C497.494 157.087 497.867 158.107 497.867 159.48V166H496.507ZM492.887 166.1C492.101 166.1 491.414 165.973 490.827 165.72C490.254 165.453 489.814 165.093 489.507 164.64C489.201 164.173 489.047 163.64 489.047 163.04C489.047 162.493 489.174 162 489.427 161.56C489.694 161.107 490.121 160.747 490.707 160.48C491.307 160.2 492.107 160.06 493.107 160.06H496.727V161.12H493.147C492.134 161.12 491.427 161.3 491.027 161.66C490.641 162.02 490.447 162.467 490.447 163C490.447 163.6 490.681 164.08 491.147 164.44C491.614 164.8 492.267 164.98 493.107 164.98C493.907 164.98 494.594 164.8 495.167 164.44C495.754 164.067 496.181 163.533 496.447 162.84L496.767 163.82C496.501 164.513 496.034 165.067 495.367 165.48C494.714 165.893 493.887 166.1 492.887 166.1ZM505.044 166.1C504.057 166.1 503.297 165.833 502.764 165.3C502.231 164.767 501.964 164.013 501.964 163.04V153.18H503.384V162.96C503.384 163.573 503.537 164.047 503.844 164.38C504.164 164.713 504.617 164.88 505.204 164.88C505.831 164.88 506.351 164.7 506.764 164.34L507.264 165.36C506.984 165.613 506.644 165.8 506.244 165.92C505.857 166.04 505.457 166.1 505.044 166.1ZM500.084 156.68V155.5H506.584V156.68H500.084ZM509.849 166V155.5H511.269V166H509.849ZM510.569 153.18C510.276 153.18 510.029 153.08 509.829 152.88C509.629 152.68 509.529 152.44 509.529 152.16C509.529 151.88 509.629 151.647 509.829 151.46C510.029 151.26 510.276 151.16 510.569 151.16C510.862 151.16 511.109 151.253 511.309 151.44C511.509 151.627 511.609 151.86 511.609 152.14C511.609 152.433 511.509 152.68 511.309 152.88C511.122 153.08 510.876 153.18 510.569 153.18ZM519.5 166.1C518.487 166.1 517.574 165.873 516.76 165.42C515.96 164.953 515.327 164.32 514.86 163.52C514.394 162.707 514.16 161.78 514.16 160.74C514.16 159.687 514.394 158.76 514.86 157.96C515.327 157.16 515.96 156.533 516.76 156.08C517.56 155.627 518.474 155.4 519.5 155.4C520.54 155.4 521.46 155.627 522.26 156.08C523.074 156.533 523.707 157.16 524.16 157.96C524.627 158.76 524.86 159.687 524.86 160.74C524.86 161.78 524.627 162.707 524.16 163.52C523.707 164.32 523.074 164.953 522.26 165.42C521.447 165.873 520.527 166.1 519.5 166.1ZM519.5 164.84C520.26 164.84 520.934 164.673 521.52 164.34C522.107 163.993 522.567 163.513 522.9 162.9C523.247 162.273 523.42 161.553 523.42 160.74C523.42 159.913 523.247 159.193 522.9 158.58C522.567 157.967 522.107 157.493 521.52 157.16C520.934 156.813 520.267 156.64 519.52 156.64C518.774 156.64 518.107 156.813 517.52 157.16C516.934 157.493 516.467 157.967 516.12 158.58C515.774 159.193 515.6 159.913 515.6 160.74C515.6 161.553 515.774 162.273 516.12 162.9C516.467 163.513 516.934 163.993 517.52 164.34C518.107 164.673 518.767 164.84 519.5 164.84ZM533.119 155.4C533.973 155.4 534.719 155.567 535.359 155.9C536.013 156.22 536.519 156.713 536.879 157.38C537.253 158.047 537.439 158.887 537.439 159.9V166H536.019V160.04C536.019 158.933 535.739 158.1 535.179 157.54C534.633 156.967 533.859 156.68 532.859 156.68C532.113 156.68 531.459 156.833 530.899 157.14C530.353 157.433 529.926 157.867 529.619 158.44C529.326 159 529.179 159.68 529.179 160.48V166H527.759V155.5H529.119V158.38L528.899 157.84C529.233 157.08 529.766 156.487 530.499 156.06C531.233 155.62 532.106 155.4 533.119 155.4ZM550.669 166.12C549.629 166.12 548.629 165.953 547.669 165.62C546.723 165.273 545.989 164.833 545.469 164.3L546.049 163.16C546.543 163.64 547.203 164.047 548.029 164.38C548.869 164.7 549.749 164.86 550.669 164.86C551.549 164.86 552.263 164.753 552.809 164.54C553.369 164.313 553.776 164.013 554.029 163.64C554.296 163.267 554.429 162.853 554.429 162.4C554.429 161.853 554.269 161.413 553.949 161.08C553.643 160.747 553.236 160.487 552.729 160.3C552.223 160.1 551.663 159.927 551.049 159.78C550.436 159.633 549.823 159.48 549.209 159.32C548.596 159.147 548.029 158.92 547.509 158.64C547.003 158.36 546.589 157.993 546.269 157.54C545.963 157.073 545.809 156.467 545.809 155.72C545.809 155.027 545.989 154.393 546.349 153.82C546.723 153.233 547.289 152.767 548.049 152.42C548.809 152.06 549.783 151.88 550.969 151.88C551.756 151.88 552.536 151.993 553.309 152.22C554.083 152.433 554.749 152.733 555.309 153.12L554.809 154.3C554.209 153.9 553.569 153.607 552.889 153.42C552.223 153.233 551.576 153.14 550.949 153.14C550.109 153.14 549.416 153.253 548.869 153.48C548.323 153.707 547.916 154.013 547.649 154.4C547.396 154.773 547.269 155.2 547.269 155.68C547.269 156.227 547.423 156.667 547.729 157C548.049 157.333 548.463 157.593 548.969 157.78C549.489 157.967 550.056 158.133 550.669 158.28C551.283 158.427 551.889 158.587 552.489 158.76C553.103 158.933 553.663 159.16 554.169 159.44C554.689 159.707 555.103 160.067 555.409 160.52C555.729 160.973 555.889 161.567 555.889 162.3C555.889 162.98 555.703 163.613 555.329 164.2C554.956 164.773 554.383 165.24 553.609 165.6C552.849 165.947 551.869 166.12 550.669 166.12ZM565.394 166V163.68L565.334 163.3V159.42C565.334 158.527 565.081 157.84 564.574 157.36C564.081 156.88 563.341 156.64 562.354 156.64C561.674 156.64 561.027 156.753 560.414 156.98C559.801 157.207 559.281 157.507 558.854 157.88L558.214 156.82C558.747 156.367 559.387 156.02 560.134 155.78C560.881 155.527 561.667 155.4 562.494 155.4C563.854 155.4 564.901 155.74 565.634 156.42C566.381 157.087 566.754 158.107 566.754 159.48V166H565.394ZM561.774 166.1C560.987 166.1 560.301 165.973 559.714 165.72C559.141 165.453 558.701 165.093 558.394 164.64C558.087 164.173 557.934 163.64 557.934 163.04C557.934 162.493 558.061 162 558.314 161.56C558.581 161.107 559.007 160.747 559.594 160.48C560.194 160.2 560.994 160.06 561.994 160.06H565.614V161.12H562.034C561.021 161.12 560.314 161.3 559.914 161.66C559.527 162.02 559.334 162.467 559.334 163C559.334 163.6 559.567 164.08 560.034 164.44C560.501 164.8 561.154 164.98 561.994 164.98C562.794 164.98 563.481 164.8 564.054 164.44C564.641 164.067 565.067 163.533 565.334 162.84L565.654 163.82C565.387 164.513 564.921 165.067 564.254 165.48C563.601 165.893 562.774 166.1 561.774 166.1ZM570.611 166V151.16H572.031V166H570.611ZM580.442 166.1C579.349 166.1 578.389 165.873 577.562 165.42C576.735 164.953 576.089 164.32 575.622 163.52C575.155 162.707 574.922 161.78 574.922 160.74C574.922 159.7 575.142 158.78 575.582 157.98C576.035 157.18 576.649 156.553 577.422 156.1C578.209 155.633 579.089 155.4 580.062 155.4C581.049 155.4 581.922 155.627 582.682 156.08C583.455 156.52 584.062 157.147 584.502 157.96C584.942 158.76 585.162 159.687 585.162 160.74C585.162 160.807 585.155 160.88 585.142 160.96C585.142 161.027 585.142 161.1 585.142 161.18H576.002V160.12H584.382L583.822 160.54C583.822 159.78 583.655 159.107 583.322 158.52C583.002 157.92 582.562 157.453 582.002 157.12C581.442 156.787 580.795 156.62 580.062 156.62C579.342 156.62 578.695 156.787 578.122 157.12C577.549 157.453 577.102 157.92 576.782 158.52C576.462 159.12 576.302 159.807 576.302 160.58V160.8C576.302 161.6 576.475 162.307 576.822 162.92C577.182 163.52 577.675 163.993 578.302 164.34C578.942 164.673 579.669 164.84 580.482 164.84C581.122 164.84 581.715 164.727 582.262 164.5C582.822 164.273 583.302 163.927 583.702 163.46L584.502 164.38C584.035 164.94 583.449 165.367 582.742 165.66C582.049 165.953 581.282 166.1 580.442 166.1ZM593.587 166V152H598.827C600.013 152 601.033 152.193 601.887 152.58C602.74 152.953 603.393 153.5 603.847 154.22C604.313 154.927 604.547 155.787 604.547 156.8C604.547 157.787 604.313 158.64 603.847 159.36C603.393 160.067 602.74 160.613 601.887 161C601.033 161.387 600.013 161.58 598.827 161.58H594.407L595.067 160.88V166H593.587ZM595.067 161L594.407 160.28H598.787C600.187 160.28 601.247 159.98 601.967 159.38C602.7 158.767 603.067 157.907 603.067 156.8C603.067 155.68 602.7 154.813 601.967 154.2C601.247 153.587 600.187 153.28 598.787 153.28H594.407L595.067 152.58V161ZM607.193 166V155.5H608.553V158.36L608.413 157.86C608.706 157.06 609.2 156.453 609.893 156.04C610.586 155.613 611.446 155.4 612.473 155.4V156.78C612.42 156.78 612.366 156.78 612.313 156.78C612.26 156.767 612.206 156.76 612.153 156.76C611.046 156.76 610.18 157.1 609.553 157.78C608.926 158.447 608.613 159.4 608.613 160.64V166H607.193ZM615.064 166V155.5H616.484V166H615.064ZM615.784 153.18C615.491 153.18 615.244 153.08 615.044 152.88C614.844 152.68 614.744 152.44 614.744 152.16C614.744 151.88 614.844 151.647 615.044 151.46C615.244 151.26 615.491 151.16 615.784 151.16C616.077 151.16 616.324 151.253 616.524 151.44C616.724 151.627 616.824 151.86 616.824 152.14C616.824 152.433 616.724 152.68 616.524 152.88C616.337 153.08 616.091 153.18 615.784 153.18ZM624.795 166.1C623.755 166.1 622.822 165.873 621.995 165.42C621.182 164.953 620.542 164.32 620.075 163.52C619.608 162.707 619.375 161.78 619.375 160.74C619.375 159.687 619.608 158.76 620.075 157.96C620.542 157.16 621.182 156.533 621.995 156.08C622.822 155.627 623.755 155.4 624.795 155.4C625.688 155.4 626.495 155.573 627.215 155.92C627.935 156.267 628.502 156.787 628.915 157.48L627.855 158.2C627.495 157.667 627.048 157.273 626.515 157.02C625.982 156.767 625.402 156.64 624.775 156.64C624.028 156.64 623.355 156.813 622.755 157.16C622.155 157.493 621.682 157.967 621.335 158.58C620.988 159.193 620.815 159.913 620.815 160.74C620.815 161.567 620.988 162.287 621.335 162.9C621.682 163.513 622.155 163.993 622.755 164.34C623.355 164.673 624.028 164.84 624.775 164.84C625.402 164.84 625.982 164.713 626.515 164.46C627.048 164.207 627.495 163.82 627.855 163.3L628.915 164.02C628.502 164.7 627.935 165.22 627.215 165.58C626.495 165.927 625.688 166.1 624.795 166.1ZM635.989 166.1C634.895 166.1 633.935 165.873 633.109 165.42C632.282 164.953 631.635 164.32 631.169 163.52C630.702 162.707 630.469 161.78 630.469 160.74C630.469 159.7 630.689 158.78 631.129 157.98C631.582 157.18 632.195 156.553 632.969 156.1C633.755 155.633 634.635 155.4 635.609 155.4C636.595 155.4 637.469 155.627 638.229 156.08C639.002 156.52 639.609 157.147 640.049 157.96C640.489 158.76 640.709 159.687 640.709 160.74C640.709 160.807 640.702 160.88 640.689 160.96C640.689 161.027 640.689 161.1 640.689 161.18H631.549V160.12H639.929L639.369 160.54C639.369 159.78 639.202 159.107 638.869 158.52C638.549 157.92 638.109 157.453 637.549 157.12C636.989 156.787 636.342 156.62 635.609 156.62C634.889 156.62 634.242 156.787 633.669 157.12C633.095 157.453 632.649 157.92 632.329 158.52C632.009 159.12 631.849 159.807 631.849 160.58V160.8C631.849 161.6 632.022 162.307 632.369 162.92C632.729 163.52 633.222 163.993 633.849 164.34C634.489 164.673 635.215 164.84 636.029 164.84C636.669 164.84 637.262 164.727 637.809 164.5C638.369 164.273 638.849 163.927 639.249 163.46L640.049 164.38C639.582 164.94 638.995 165.367 638.289 165.66C637.595 165.953 636.829 166.1 635.989 166.1Z" fill="#3C3C45"/>
<defs>
<clipPath id="clip0_1190_1733">
<rect width="120.292" height="92" fill="white" transform="translate(60.3535)"/>
</clipPath>
<clipPath id="clip1_1190_1733">
<rect width="120.292" height="92" fill="white" transform="translate(469.354)"/>
</clipPath>
</defs>
</svg>
